<?xml version="1.0" encoding="UTF-8"?>
<svg width="339px" height="324px" viewBox="0 0 339 324" version="1.1" xmlns="http://www.w3.org/2000/svg" xmlns:xlink="http://www.w3.org/1999/xlink">
    <!-- Generator: Sketch 53.2 (72643) - https://sketchapp.com -->
    <title>building</title>
    <desc>Created with Sketch.</desc>
    <g id="Onboarding-v2" stroke="none" stroke-width="1" fill="none" fill-rule="evenodd" opacity="0.02">
        <g id="2(a)-Onboarding---Corporate-Info-V1" transform="translate(-590.000000, -200.000000)" fill="#000000" fill-rule="nonzero">
            <g id="building" transform="translate(589.500000, 200.000000)">
                <path d="M206.764978,107.06891 C207.506064,109.471874 209.626544,111 211.909305,111 C212.462415,111 213.024991,110.910528 213.578101,110.721642 C215.209031,110.166348 216.876475,109.639456 218.534452,109.156591 C221.413598,108.318678 223.099974,105.188576 222.30209,102.164988 C221.502853,99.1414004 218.52769,97.3690013 215.644487,98.2083346 C213.837752,98.7338054 212.018845,99.3075628 210.241862,99.9125644 C207.400581,100.881135 205.84403,104.085087 206.764978,107.06891 Z" id="Path"></path>
                <path d="M239.166815,104 C239.353969,104 239.543959,103.990731 239.732531,103.973516 C241.519001,103.80799 243.3395,103.676893 245.141567,103.584199 C248.269308,103.422646 250.665447,100.923866 250.491053,98.0026646 C250.318078,95.081463 247.673818,92.8647398 244.514884,93.00643 C242.546931,93.1083939 240.561964,93.2514083 238.612442,93.4315006 C235.496044,93.7201778 233.219003,96.3143001 233.528091,99.224908 C233.821582,101.958072 236.287195,104 239.166815,104 L239.166815,104 Z" id="Path"></path>
                <path d="M321.845833,115.598005 C320.793138,118.459542 322.224422,121.647479 325.04341,122.715196 L330.146188,124.650088 C330.775354,124.887973 331.418138,125 332.050027,125 C334.258916,125 336.335707,123.626628 337.154167,121.401296 C338.206862,118.539759 336.775578,115.351821 333.95659,114.284104 L328.853812,112.349213 C326.029376,111.284262 322.89989,112.736468 321.845833,115.598005 Z" id="Path"></path>
                <path d="M217.784202,53.9425612 C218.746529,54.6560139 219.857641,55 220.956468,55 C222.658626,55 224.336214,54.176132 225.402281,52.6317335 C226.503838,51.0335429 227.58492,49.3914693 228.614132,47.7536425 C230.260325,45.1334026 229.546428,41.6255937 227.018444,39.9184034 C224.490459,38.2112131 221.109348,38.9529774 219.46452,41.5718016 C218.521303,43.0737327 217.530311,44.578495 216.52021,46.043621 C214.764816,48.5874195 215.331292,52.1235401 217.784202,53.9425612 Z" id="Path"></path>
                <path d="M202.367026,76 C203.767535,76 205.172444,75.5568843 206.295784,74.6576201 C207.810681,73.4416585 209.309445,72.1865984 210.74955,70.9276285 C213.057824,68.9075422 213.087154,65.6063302 210.814076,63.5549651 C208.539532,61.5036001 204.827816,61.4788377 202.518076,63.498924 C201.199691,64.6523282 199.827045,65.8031257 198.436802,66.9161281 C196.031739,68.8449847 195.839627,72.1409835 198.011516,74.2783652 C199.167119,75.4200397 200.76414,76 202.367026,76 L202.367026,76 Z" id="Path"></path>
                <path d="M24.7632997,74.6593346 L29.3214807,77.9074424 C30.3569758,78.6452212 31.569821,79 32.7755149,79 C34.5032471,79 36.2123862,78.2675967 37.3365564,76.8726708 C39.2459293,74.5074785 38.7539261,71.1357357 36.2367003,69.3416836 L31.6785193,66.0935758 C29.1598633,64.2995237 25.5699561,64.7604674 23.6634436,67.1270035 C21.7540707,69.4935397 22.2460739,72.8652825 24.7632997,74.6593346 L24.7632997,74.6593346 Z" id="Path"></path>
                <path d="M47.2279985,83.8598083 C45.7098833,86.5738253 46.6432533,90.0257157 49.3100247,91.5707264 C50.9920353,92.5446627 52.7073804,93.4889145 54.4088361,94.3752107 C55.2199791,94.7992758 56.0866798,95 56.9394911,95 C58.956237,95 60.9035357,93.8776409 61.8869077,91.924114 C63.2869627,89.1450737 62.2077536,85.7384169 59.4784797,84.313558 C57.9200852,83.4993529 56.3464123,82.6342599 54.8032961,81.740896 C52.1365247,80.1958853 48.7419469,81.1457912 47.2279985,83.8598083 L47.2279985,83.8598083 Z" id="Path"></path>
                <path d="M14.237592,53.342497 L9.67911512,50.0942108 C7.15886529,48.2987162 3.57015539,48.7610292 1.66351917,51.1276953 C-0.245977727,53.4930175 0.246057428,56.8649456 2.76344659,58.6590962 L7.32192345,61.9073824 C8.35748581,62.6452017 9.57040968,63 10.7761819,63 C12.5040263,63 14.2132763,62.2675565 15.3375194,60.872554 C17.245586,58.5085757 16.7535508,55.1366476 14.237592,53.342497 L14.237592,53.342497 Z" id="Path"></path>
                <path d="M296,27 C299.037375,27 301.5,24.58215 301.5,21.6 L301.5,5.4 C301.5,2.41785 299.037375,0 296,0 C292.962625,0 290.5,2.41785 290.5,5.4 L290.5,21.6 C290.5,24.58215 292.962625,27 296,27 Z" id="Path"></path>
                <path d="M296,38 C292.962625,38 290.5,40.41785 290.5,43.4 L290.5,59.6 C290.5,62.58215 292.962625,65 296,65 C299.037375,65 301.5,62.58215 301.5,59.6 L301.5,43.4 C301.5,40.41785 299.037375,38 296,38 Z" id="Path"></path>
                <path d="M267.1,38 L283.9,38 C286.9926,38 289.5,35.537375 289.5,32.5 C289.5,29.462625 286.9926,27 283.9,27 L267.1,27 C264.0074,27 261.5,29.462625 261.5,32.5 C261.5,35.537375 264.0074,38 267.1,38 Z" id="Path"></path>
                <path d="M305.1,38 L321.9,38 C324.9926,38 327.5,35.537375 327.5,32.5 C327.5,29.462625 324.9926,27 321.9,27 L305.1,27 C302.0074,27 299.5,29.462625 299.5,32.5 C299.5,35.537375 302.0074,38 305.1,38 Z" id="Path"></path>
                <path d="M54.5,21 C54.5,9.97229917 45.5277008,1 34.5,1 C23.4722992,1 14.5,9.97229917 14.5,21 C14.5,32.0277008 23.4709141,41 34.5,41 C45.5290859,41 54.5,32.0277008 54.5,21 Z M25.5803324,21 C25.5803324,16.0817175 29.5831025,12.0803324 34.5,12.0803324 C39.4168975,12.0803324 43.4196676,16.0817175 43.4196676,21 C43.4196676,25.9182825 39.4168975,29.9196676 34.5,29.9196676 C29.5831025,29.9196676 25.5803324,25.9182825 25.5803324,21 Z" id="Shape"></path>
                <circle id="Oval" cx="30" cy="131.5" r="5.5"></circle>
                <path d="M300.692982,270.12813 L300.692982,113.869397 L304.361632,115.23066 C305.001947,115.467641 305.656123,115.579243 306.299211,115.579243 C308.547246,115.579243 310.660842,114.21109 311.493807,111.994215 C312.565158,109.143552 311.108509,105.96773 308.239561,104.90407 L303.046351,102.976532 C302.267439,102.688573 301.469123,102.599016 300.691596,102.658261 L300.691596,88.3236591 C300.691596,86.3644315 299.643807,84.5512504 297.941842,83.5633699 C296.239877,82.5754893 294.135982,82.5603335 292.421544,83.5261693 L272.844789,94.5251242 C272.778263,94.5113462 272.718667,94.4851681 272.650754,94.4741457 C270.749211,94.166897 268.821333,93.8996043 266.922561,93.6750234 C263.887298,93.3209295 261.12507,95.4813155 260.767491,98.5028247 C260.658,99.4218154 260.806298,100.304983 261.119526,101.112373 L195.652088,137.895424 L195.652088,93.6819123 C195.652088,91.7405961 194.625088,89.9425708 192.946684,88.9478012 L189.117263,86.6785693 C190.662614,84.8929441 190.952281,82.2613515 189.624526,80.1643442 C187.99186,77.5892413 184.571298,76.8135415 181.978158,78.4379644 C180.877702,79.1268629 179.739825,79.7895834 178.606105,80.4495482 L76.233193,19.7768717 C74.5229123,18.7628129 72.3926842,18.7393904 70.6574561,19.7190042 C68.9222281,20.6972402 67.8508772,22.5269548 67.8508772,24.509605 L67.8508772,269.198117 C42.8203509,271.959223 23.5,293.220011 23.5,318.488811 C23.5,321.532365 25.9822632,324 29.0438596,324 L73.3947368,324 L295.149123,324 L333.95614,324 C337.017737,324 339.5,321.532365 339.5,318.488811 C339.5,295.297729 323.273123,275.220469 300.692982,270.12813 Z M67.8508772,280.322452 L67.8508772,312.977623 L34.9854912,312.977623 C37.4247895,296.220853 50.8187544,282.752886 67.8508772,280.322452 Z M78.9385965,312.977623 L78.9385965,34.2120527 L184.564368,96.8122675 L184.564368,312.977623 L78.9385965,312.977623 Z M195.652088,312.977623 L195.652088,150.556002 L289.605263,97.7698366 L289.605263,312.977623 L195.652088,312.977623 Z M300.692982,312.977623 L300.692982,281.528024 C315.190175,285.810218 325.869035,298.167681 328.015895,312.977623 L300.692982,312.977623 Z" id="Shape"></path>
                <path d="M167.9,104 L95.1,104 C92.0074,104 89.5,106.462625 89.5,109.5 L89.5,131.5 C89.5,134.537375 92.0074,137 95.1,137 L167.9,137 C170.9926,137 173.5,134.537375 173.5,131.5 L173.5,109.5 C173.5,106.462625 170.9926,104 167.9,104 Z M162.3,126 L100.7,126 L100.7,115 L162.3,115 L162.3,126 Z" id="Shape"></path>
                <path d="M167.9,149 L95.1,149 C92.0074,149 89.5,151.462625 89.5,154.5 L89.5,176.5 C89.5,179.537375 92.0074,182 95.1,182 L167.9,182 C170.9926,182 173.5,179.537375 173.5,176.5 L173.5,154.5 C173.5,151.462625 170.9926,149 167.9,149 Z M162.3,171 L100.7,171 L100.7,160 L162.3,160 L162.3,171 Z" id="Shape"></path>
                <path d="M167.9,193 L95.1,193 C92.0074,193 89.5,195.462625 89.5,198.5 L89.5,220.5 C89.5,223.537375 92.0074,226 95.1,226 L167.9,226 C170.9926,226 173.5,223.537375 173.5,220.5 L173.5,198.5 C173.5,195.462625 170.9926,193 167.9,193 Z M162.3,215 L100.7,215 L100.7,204 L162.3,204 L162.3,215 Z" id="Shape"></path>
                <path d="M167.9,237 L95.1,237 C92.0074,237 89.5,239.462625 89.5,242.5 L89.5,264.5 C89.5,267.537375 92.0074,270 95.1,270 L167.9,270 C170.9926,270 173.5,267.537375 173.5,264.5 L173.5,242.5 C173.5,239.462625 170.9926,237 167.9,237 Z M162.3,259 L100.7,259 L100.7,248 L162.3,248 L162.3,259 Z" id="Shape"></path>
                <path d="M266.863636,164 L216.136364,164 C213.023682,164 210.5,166.451898 210.5,169.476042 L210.5,191.523958 C210.5,194.548102 213.023682,197 216.136364,197 L266.863636,197 C269.976318,197 272.5,194.548102 272.5,191.523958 L272.5,169.476042 C272.5,166.451898 269.976318,164 266.863636,164 Z M261.227273,186.047915 L221.772727,186.047915 L221.772727,174.952085 L261.227273,174.952085 L261.227273,186.047915 Z" id="Shape"></path>
                <path d="M266.863636,209 L216.136364,209 C213.023682,209 210.5,211.451898 210.5,214.476042 L210.5,236.523958 C210.5,239.548102 213.023682,242 216.136364,242 L266.863636,242 C269.976318,242 272.5,239.548102 272.5,236.523958 L272.5,214.476042 C272.5,211.451898 269.976318,209 266.863636,209 Z M261.227273,231.047915 L221.772727,231.047915 L221.772727,219.952085 L261.227273,219.952085 L261.227273,231.047915 Z" id="Shape"></path>
                <path d="M266.863636,253 L216.136364,253 C213.023682,253 210.5,255.451898 210.5,258.476042 L210.5,280.523958 C210.5,283.548102 213.023682,286 216.136364,286 L266.863636,286 C269.976318,286 272.5,283.548102 272.5,280.523958 L272.5,258.476042 C272.5,255.451898 269.976318,253 266.863636,253 Z M261.227273,275.047915 L221.772727,275.047915 L221.772727,263.952085 L261.227273,263.952085 L261.227273,275.047915 Z" id="Shape"></path>
            </g>
        </g>
    </g>
</svg>