<?xml version="1.0" encoding="UTF-8"?>
<svg width="14px" height="14px" viewBox="0 0 14 14" version="1.1" xmlns="http://www.w3.org/2000/svg" xmlns:xlink="http://www.w3.org/1999/xlink">
    <!-- Generator: Sketch 53.2 (72643) - https://sketchapp.com -->
    <title>close</title>
    <desc>Created with Sketch.</desc>
    <g id="Dashboard" stroke="none" stroke-width="1" fill="none" fill-rule="evenodd">
        <g id="4(e)" transform="translate(-288.000000, -101.000000)" fill="#186BCE" fill-rule="nonzero">
            <g id="close" transform="translate(288.000000, 101.000000)">
                <path d="M12.8182529,13.9818537 C12.5204545,13.9818537 12.2226562,13.8682529 11.9954545,13.6408026 L0.359197427,2.00454545 C-0.0954545455,1.54989348 -0.0954545455,0.813600836 0.359197427,0.359197427 C0.813600836,-0.0952059818 1.55014205,-0.0954545455 2.00454545,0.359197427 L13.6408026,11.9954545 C14.0954545,12.4501065 14.0954545,13.1863992 13.6408026,13.6408026 C13.4136008,13.8682529 13.1160511,13.9818537 12.8182529,13.9818537 L12.8182529,13.9818537 Z" id="Path"></path>
                <path d="M1.18174713,13.9818537 C0.883948864,13.9818537 0.586399164,13.8682529 0.359197427,13.6408026 C-0.0954545455,13.1863992 -0.0954545455,12.449858 0.359197427,11.9954545 L11.9954545,0.359197427 C12.4501065,-0.0954545455 13.1863992,-0.0954545455 13.6408026,0.359197427 C14.095206,0.813600836 14.0954545,1.55014205 13.6408026,2.00454545 L2.00454545,13.6408026 C1.77734378,13.8682529 1.47954545,13.9818537 1.18174713,13.9818537 L1.18174713,13.9818537 Z" id="Path"></path>
            </g>
        </g>
    </g>
</svg>