<?xml version="1.0" encoding="UTF-8"?>
<svg width="330px" height="324px" viewBox="0 0 330 324" version="1.1" xmlns="http://www.w3.org/2000/svg" xmlns:xlink="http://www.w3.org/1999/xlink">
    <!-- Generator: Sketch 53.2 (72643) - https://sketchapp.com -->
    <title>constitution</title>
    <desc>Created with Sketch.</desc>
    <g id="Onboarding-v2" stroke="none" stroke-width="1" fill="none" fill-rule="evenodd" opacity="0.02">
        <g id="2(c)-Onboarding---Corporate-Info-V1" transform="translate(-589.000000, -200.000000)" fill="#000000" fill-rule="nonzero">
            <g id="constitution" transform="translate(589.500000, 200.000000)">
                <path d="M283.745355,61.5525401 C285.125058,61.5525401 286.506109,61.0252051 287.55943,59.9718837 L299.001656,48.5269604 C301.108299,46.4203177 301.108299,43.0027551 299.001656,40.8988098 C296.895013,38.792167 293.480148,38.792167 291.373506,40.8988098 L279.93128,52.3437331 C277.824637,54.4503758 277.824637,57.8679383 279.93128,59.9718837 C280.984601,61.0252051 282.364304,61.5525401 283.745355,61.5525401 Z" id="Path"></path>
                <path d="M310.450626,34.8499668 C311.830328,34.8499668 313.21138,34.3226318 314.264701,33.2693104 L325.706927,21.8243871 C327.81357,19.7177444 327.81357,16.3001819 325.706927,14.1962365 C323.600284,12.0895938 320.185419,12.0895938 318.078776,14.1962365 L306.63655,25.6411598 C304.529908,27.7478025 304.529908,31.1653651 306.63655,33.2693104 C307.689872,34.3226318 309.069574,34.8499668 310.450626,34.8499668 L310.450626,34.8499668 Z" id="Path"></path>
                <path d="M327.066399,53.7018568 L315.528417,42.1638743 C313.421774,40.0572316 310.006909,40.0572316 307.900266,42.1638743 C305.793623,44.2705171 305.793623,47.6853822 307.900266,49.792025 L319.438249,61.3300074 C320.49157,62.3833288 321.872621,62.9106638 323.252324,62.9106638 C324.632027,62.9106638 326.013078,62.3833288 327.066399,61.3300074 C329.173042,59.2233647 329.173042,55.8098482 327.066399,53.7018568 L327.066399,53.7018568 Z" id="Path"></path>
                <path d="M291.373506,33.2693104 C292.426827,34.3226318 293.807878,34.8499668 295.187581,34.8499668 C296.567284,34.8499668 297.948335,34.3226318 299.001656,33.2693104 C301.108299,31.1640164 301.108299,27.7478025 299.001656,25.6411598 L287.55943,14.1962365 C285.452788,12.0895938 282.037922,12.0895938 279.93128,14.1962365 C277.824637,16.3015305 277.824637,19.7177444 279.93128,21.8243871 L291.373506,33.2693104 Z" id="Path"></path>
                <path d="M213.091902,202.744807 C200.252441,202.744807 189.805543,213.189008 189.805543,226.028469 C189.805543,238.867931 200.252441,249.312131 213.091902,249.312131 C225.931364,249.312131 236.372867,238.867931 236.372867,226.028469 C236.372867,213.189008 225.931364,202.744807 213.091902,202.744807 Z M213.091902,238.521319 C206.201481,238.521319 200.595006,232.916193 200.595006,226.02712 C200.595006,219.138048 206.200133,213.532922 213.091902,213.532922 C219.976929,213.532922 225.583404,219.138048 225.583404,226.02712 C225.583404,232.916193 219.976929,238.521319 213.091902,238.521319 Z" id="Shape"></path>
                <path d="M313.326018,264.341854 L264.773432,264.341854 L264.773432,37.9451941 C264.773432,17.0217272 247.751705,0 226.832284,0 L28.2387231,0 C27.9150392,0 27.6358619,0.129473561 27.3270135,0.183420878 C12.2285081,1.8166759 0.431578537,14.6318611 0.431578537,30.1552016 L0.431578537,64.7367805 C0.431578537,67.7160211 2.84437229,70.1315122 5.82631024,70.1315122 L48.9841639,70.1315122 L48.9841639,287.794101 C48.9841639,305.627735 62.0704343,320.421438 79.1339707,323.182192 C79.8150556,323.489692 80.5568312,323.683902 81.3525541,323.683902 L264.773432,323.683902 C294.518634,323.683902 318.720749,299.484485 318.720749,269.736585 C318.720749,266.757345 316.307956,264.341854 313.326018,264.341854 Z M11.221042,59.3420488 L11.221042,30.1552016 C11.221042,19.4763301 19.9092574,10.7894634 30.5881288,10.7894634 L34.9349339,10.7894634 C42.684466,10.7894634 48.9855126,17.0932074 48.9855126,24.8400421 L48.9855126,59.3420488 L11.221042,59.3420488 Z M83.6709401,312.773058 C70.3985514,312.131084 59.7736273,301.222937 59.7736273,287.794101 L59.7736273,24.8400421 C59.7736273,19.63008 58.1619512,14.7883083 55.406592,10.7894634 L226.830935,10.7894634 C241.804013,10.7894634 253.983969,22.9721163 253.983969,37.9451941 L253.983969,264.341854 L129.90514,264.341854 C126.923202,264.341854 124.510408,266.757345 124.510408,269.736585 C124.510408,292.349952 106.0348,311.514736 83.6709401,312.773058 Z M264.773432,312.894439 L113.273182,312.894439 C125.15373,303.993132 133.423853,290.38627 135.020694,275.131317 L307.594115,275.131317 C304.934512,296.391955 286.742128,312.894439 264.773432,312.894439 Z" id="Shape"></path>
                <path d="M81.3525541,37.763122 L124.510408,37.763122 C127.492346,37.763122 129.90514,35.3476308 129.90514,32.3683902 C129.90514,29.3891497 127.492346,26.9736585 124.510408,26.9736585 L81.3525541,26.9736585 C78.3706162,26.9736585 75.9578224,29.3891497 75.9578224,32.3683902 C75.9578224,35.3476308 78.3706162,37.763122 81.3525541,37.763122 Z" id="Path"></path>
                <path d="M81.3525541,64.7367805 L232.405042,64.7367805 C235.38698,64.7367805 237.799774,62.3212894 237.799774,59.3420488 C237.799774,56.3628082 235.38698,53.9473171 232.405042,53.9473171 L81.3525541,53.9473171 C78.3706162,53.9473171 75.9578224,56.3628082 75.9578224,59.3420488 C75.9578224,62.3212894 78.3706162,64.7367805 81.3525541,64.7367805 Z" id="Path"></path>
                <path d="M81.3525541,97.1051707 L232.405042,97.1051707 C235.38698,97.1051707 237.799774,94.6896796 237.799774,91.710439 C237.799774,88.7311984 235.38698,86.3157073 232.405042,86.3157073 L81.3525541,86.3157073 C78.3706162,86.3157073 75.9578224,88.7311984 75.9578224,91.710439 C75.9578224,94.6896796 78.3706162,97.1051707 81.3525541,97.1051707 Z" id="Path"></path>
                <path d="M81.3525541,129.473561 L232.405042,129.473561 C235.38698,129.473561 237.799774,127.05807 237.799774,124.078829 C237.799774,121.099589 235.38698,118.684098 232.405042,118.684098 L81.3525541,118.684098 C78.3706162,118.684098 75.9578224,121.099589 75.9578224,124.078829 C75.9578224,127.05807 78.3706162,129.473561 81.3525541,129.473561 Z" id="Path"></path>
                <path d="M81.3525541,161.841951 L232.405042,161.841951 C235.38698,161.841951 237.799774,159.42646 237.799774,156.44722 C237.799774,153.467979 235.38698,151.052488 232.405042,151.052488 L81.3525541,151.052488 C78.3706162,151.052488 75.9578224,153.467979 75.9578224,156.44722 C75.9578224,159.42646 78.3706162,161.841951 81.3525541,161.841951 Z" id="Path"></path>
                <path d="M81.3525541,194.210341 L232.405042,194.210341 C235.38698,194.210341 237.799774,191.79485 237.799774,188.81561 C237.799774,185.836369 235.38698,183.420878 232.405042,183.420878 L81.3525541,183.420878 C78.3706162,183.420878 75.9578224,185.836369 75.9578224,188.81561 C75.9578224,191.79485 78.3706162,194.210341 81.3525541,194.210341 Z" id="Path"></path>
                <path d="M169.464707,221.184 C169.464707,218.204759 167.051913,215.789268 164.069975,215.789268 L81.3525541,215.789268 C78.3706162,215.789268 75.9578224,218.204759 75.9578224,221.184 C75.9578224,224.163241 78.3706162,226.578732 81.3525541,226.578732 L164.069975,226.578732 C167.051913,226.578732 169.464707,224.163241 169.464707,221.184 Z" id="Path"></path>
            </g>
        </g>
    </g>
</svg>