<?xml version="1.0" encoding="UTF-8"?>
<svg width="730px" height="700px" viewBox="0 0 730 700" version="1.1" xmlns="http://www.w3.org/2000/svg" xmlns:xlink="http://www.w3.org/1999/xlink">
    <!-- Generator: Sketch 53.2 (72643) - https://sketchapp.com -->
    <title>bg</title>
    <desc>Created with Sketch.</desc>
    <defs>
        <linearGradient x1="50.8479697%" y1="-41.0417613%" x2="50%" y2="62.3902725%" id="linearGradient-1">
            <stop stop-color="#1368CA" offset="0%"></stop>
            <stop stop-color="#5387CF" offset="100%"></stop>
        </linearGradient>
        <path d="M8,0 L730,0 L730,700 L8,700 C3.581722,700 5.41083001e-16,696.418278 0,692 L0,8 C-5.41083001e-16,3.581722 3.581722,8.11624501e-16 8,0 Z" id="path-2"></path>
    </defs>
    <g id="Login-&amp;-Registration" stroke="none" stroke-width="1" fill="none" fill-rule="evenodd">
        <g id="1(a)-Registration-Screen" transform="translate(-120.000000, -84.000000)">
            <g id="Group-10" transform="translate(120.000000, 84.000000)">
                <g id="Group-9">
                    <g id="bg">
                        <mask id="mask-3" fill="white">
                            <use xlink:href="#path-2"></use>
                        </mask>
                        <use id="Mask" fill="url(#linearGradient-1)" xlink:href="#path-2"></use>
                        <g id="Group-9" mask="url(#mask-3)">
                            <g transform="translate(18.000000, 384.000000)">
                                <g id="Group-24">
                                    <path d="M688.686677,189.593407 L624.116129,189.593407 L624.116129,266.629972 L683.967142,266.629972 C684.12165,267.424876 684.269136,268.21978 684.444714,269.007772 L624.116129,269.007772 L624.116129,331.120879 L624.418123,331.024108 C626.1224,330.434266 627.814971,329.807559 629.495838,329.143987 L630.577398,328.708518 C632.300403,328.012689 633.992974,327.268475 635.655112,326.475875 C636.252077,326.206299 636.842019,325.922898 637.424938,325.632585 C646.709826,321.133224 655.269511,315.310366 662.827556,308.352064 C663.045273,308.165434 663.248943,307.971892 663.44559,307.785263 C664.477989,306.803729 665.489318,305.815283 666.472554,304.799189 L667.554115,303.665586 C668.712929,302.428301 669.829605,301.149542 670.918188,299.856959 L671.39576,299.290158 C675.771929,294.009288 679.448704,288.202628 682.337778,282.009637 C682.429079,281.823007 682.506333,281.629465 682.59061,281.442835 C683.4685,279.493593 684.262113,277.516701 684.950378,275.505248 C685.245349,274.655046 685.526274,273.804845 685.772083,272.954643 C685.85636,272.698891 685.933615,272.450052 686.003846,272.201212 C689.585636,259.86292 690,247.040773 690,234.287748 C690,232.801623 690,231.308586 690,229.829373 C690,224.679778 689.922746,219.46106 689.824422,214.311465 C689.824422,212.970496 689.761214,211.63644 689.726098,210.288559 C689.641821,206.864712 689.515405,203.445473 689.34685,200.030842 C689.304711,199.076957 689.262573,198.129984 689.199365,197.189924 C689.199365,196.643859 689.14318,196.097795 689.108064,195.55173 C688.967602,193.526453 688.841186,191.563386 688.686677,189.593407 Z" id="Path" fill="#FFFFFF" fill-rule="nonzero" opacity="0.1"></path>
                                    <path d="M624.137302,103.252747 L659.729032,103.252747 C653.894063,95.3152301 647.565495,87.7369503 640.779241,80.5609126 C635.486004,74.9086834 629.931633,69.3946505 624.116129,64.0879121 L624.137302,103.252747 Z" id="Path" fill="#FFFFFF" fill-rule="nonzero" opacity="0.1"></path>
                                    <path d="M625.006452,105.053925 L625.006452,186.923077 L689.109677,186.923077 C689.109677,186.685552 689.067711,186.441042 689.046728,186.224475 C688.990773,185.581761 688.934819,184.939048 688.871869,184.289348 C688.80892,183.639648 688.724988,182.780368 688.641056,182.018892 C688.557124,181.257416 688.473191,180.377178 688.375271,179.566799 C688.27735,178.756421 688.193417,177.925085 688.088502,177.107721 C687.983587,176.290357 687.885666,175.472992 687.773756,174.662614 C687.661847,173.852236 687.556932,173.027886 687.431033,172.217508 C687.333112,171.518906 687.242186,170.876192 687.13727,170.198548 C686.990389,169.24845 686.836513,168.291365 686.675643,167.348253 C686.657402,167.207277 686.63172,167.067362 686.598705,166.929092 C685.441378,159.987613 683.867139,153.121935 681.884513,146.369239 C679.788307,139.215057 677.129165,132.237578 673.931936,125.502001 C670.484118,118.377313 666.482764,111.533363 661.964602,105.032967 L625.006452,105.053925 Z" id="Path" fill="#FFFFFF" fill-rule="nonzero" opacity="0.1"></path>
                                    <path d="M472.946502,189.768969 L472.946502,267.390014 L609.870968,267.390014 L609.870968,189.768969 L472.946502,189.768969 Z M472.946502,269.785854 L472.946502,322.348082 C488.885464,317.256921 507.111381,319.311494 523.636026,323.490285 C536.430424,326.735813 548.897119,331.151402 561.6706,334.327283 C567.375786,335.782872 573.167511,336.876188 579.011018,337.60067 L580.447338,337.753892 C581.14458,337.823539 581.841823,337.893185 582.539065,337.948902 L584.630792,338.09516 L584.846937,338.09516 L585.781242,338.09516 C585.88804,338.102086 585.995176,338.102086 586.101974,338.09516 L587.231507,338.136948 L587.266369,338.136948 C587.803245,338.136948 588.347094,338.136948 588.890943,338.178736 L589.588186,338.178736 C590.125063,338.178736 590.668912,338.178736 591.212761,338.178736 L592.405045,338.178736 L593.36724,338.178736 C593.778613,338.178736 594.183013,338.178736 594.587414,338.136948 C595.242822,338.136948 595.89823,338.081231 596.56061,338.032478 L597.780784,337.955867 L599.286828,337.837468 C600.353609,337.753892 601.378555,337.642458 602.459281,337.517094 C602.877626,337.468341 603.302944,337.419589 603.72129,337.356907 L604.341835,337.280296 C605.394671,337.141003 606.433563,336.973851 607.486399,336.799735 C608.260338,336.681336 609.034277,336.535078 609.815188,336.395785 L609.815188,269.785854 L472.946502,269.785854 Z M574.785729,103.330674 L574.785729,105.726514 L472.946502,105.726514 L472.946502,187.373128 L609.870968,187.373128 L609.870968,105.754373 L603.00313,105.754373 L603.00313,103.358533 L609.870968,103.358533 L609.870968,50.6082593 C583.236307,29.1780255 552.104434,12.3932144 517.430568,4.64155688 C502.827163,1.41270626 487.902614,-0.141174964 472.946502,0.0100633788 L472.946502,103.358533 L574.785729,103.330674 Z M261.723885,102.871007 L262.204982,103.330674 L457.628086,103.330674 L457.628086,0.727422523 C422.83569,3.61775306 388.907874,15.2905096 361.555054,34.6313479 C348.412035,43.9152289 336.607721,54.9193789 321.861043,62.0442177 C314.122729,65.8797319 305.669005,68.0619668 297.039214,68.4516975 L261.723885,102.871007 Z M260.378207,60.7766511 L260.378207,84.0037651 L279.259532,65.5961902 C272.238301,63.1724913 266.702196,61.5149042 260.350318,60.8045097 L260.378207,60.7766511 Z M259.750689,352.985586 L260.378207,352.985586 L260.378207,403.897191 C267.504025,403.367877 274.601953,402.638911 281.671991,401.71029 C313.287011,397.641055 344.265826,389.62479 373.8823,377.849393 L373.8823,377.849393 C377.061725,376.577183 380.217909,375.263186 383.350852,373.9074 C385.437931,373.001995 387.513389,372.073375 389.577227,371.121539 C392.672983,369.70075 395.745498,368.240495 398.794772,366.740773 C412.288673,360.116101 425.305048,352.562127 437.749705,344.133513 C438.523644,343.611164 439.304556,343.081851 440.071522,342.545572 C441.614752,341.477659 443.146362,340.40046 444.66635,339.313974 C445.426344,338.763767 446.186338,338.213559 446.93936,337.656387 L448.487238,336.472396 C450.049061,335.309299 451.603912,334.139238 453.17968,332.99007 L453.17968,332.99007 C454.636917,331.945372 456.108098,330.900675 457.600197,329.925623 L457.600197,269.751031 L300.616067,269.751031 C300.727626,269.395834 300.832212,269.054566 300.950743,268.678475 C300.82524,269.040636 300.713681,269.37494 300.609095,269.751031 L260.350318,269.751031 L260.350318,352.971656 L259.750689,352.985586 Z M260.378207,105.740444 L260.378207,187.373128 L457.628086,187.373128 L457.628086,105.754373 L260.378207,105.740444 Z M260.378207,189.755039 L260.378207,267.390014 L457.628086,267.390014 L457.628086,189.768969 L260.378207,189.755039 Z M220.942176,63.1655267 L245.038874,86.6572975 L245.038874,60.6721813 C236.964807,61.1736363 228.932574,62.0047514 220.942176,63.1655267 Z M53.1507893,189.768969 L53.1507893,267.390014 L245.038874,267.390014 L245.038874,189.768969 L53.1507893,189.768969 Z M99.5313547,381.471012 C128.61611,392.530956 159.025838,399.737987 189.984613,402.90821 L190.117089,402.90821 C195.969277,403.525743 201.837734,404.003982 207.72246,404.342929 L207.938605,404.342929 L207.938605,404.342929 C220.272824,405.039394 232.655849,405.199581 245.017957,404.739914 L245.017957,269.785854 L53.1507893,269.785854 L53.8480317,359.156267 L99.5313547,381.471012 Z M0,267.390014 L37.8463183,267.390014 L37.8463183,189.768969 L22.8765236,189.768969 C21.321673,192.499112 19.8156294,195.243185 18.3862825,198.029046 C17.6193158,199.510195 16.8732664,201.007595 16.1481343,202.521246 C6.29609901,222.94857 0.0348621207,245.402608 0,267.390014 Z M0,269.785854 C0.306786662,285.553826 3.86272298,301.029283 11.6648656,315.327713 C18.1492201,327.202444 27.1575921,337.614599 37.8184286,346.668646 L37.8184286,269.785854 L0,269.785854 Z M24.2500912,187.373128 L37.8184286,187.373128 L37.8184286,167.175638 C32.9280253,173.648239 28.4073497,180.391465 24.2779809,187.373128 L24.2500912,187.373128 Z M109.264859,103.358533 L240.513771,103.358533 L240.987896,102.898866 L240.290653,102.202401 L240.290653,102.202401 L203.385612,66.2439028 C192.431739,68.5277543 181.614515,71.4226179 170.984757,74.9148944 C169.980728,75.2422331 168.976699,75.6113596 167.979643,75.9247689 C147.455165,82.8786523 127.763809,92.0791971 109.264859,103.358533 L109.264859,103.358533 Z M53.1507893,148.886462 L53.1507893,187.373128 L221.437218,187.373128 L221.437218,187.373128 L221.472081,187.373128 L245.059792,187.373128 L245.059792,107.976097 L242.368436,105.789196 L105.402136,105.789196 C86.1998213,117.847555 68.6373783,132.333177 53.1507893,148.886462 L53.1507893,148.886462 Z" id="Shape" fill="#F4F9FF" fill-rule="nonzero" opacity="0.137886"></path>
                                    <polygon id="Path" fill="#FFFFFF" fill-rule="nonzero" opacity="0.1" points="561.793548 116.438373 561.793548 186.923077 609.870968 186.923077 609.870968 116.438373 603.020648 116.438373 603.020648 92.5714286 574.875224 92.5714286 574.875224 116.438373"></polygon>
                                    <rect id="Rectangle" fill="#FFFFFF" fill-rule="nonzero" opacity="0.1" x="561.793548" y="189.593407" width="48.0774194" height="77.4395604"></rect>
                                    <path d="M609.870968,269.703297 L561.793548,269.703297 L561.793548,334.342613 C567.483257,335.797697 573.258559,336.89264 579.085282,337.620964 L580.518145,337.774419 C581.21371,337.851146 581.909274,337.913923 582.604839,337.969725 L584.691532,338.116204 C584.761089,338.116204 584.837601,338.116204 584.907157,338.116204 C585.213206,338.116204 585.52621,338.116204 585.839214,338.158056 L586.159173,338.158056 C586.534778,338.158056 586.910383,338.158056 587.292944,338.199907 L587.292944,338.199907 C587.828528,338.199907 588.371069,338.199907 588.913609,338.241758 L589.609173,338.241758 C590.151714,338.241758 590.687298,338.241758 591.229839,338.241758 L592.419254,338.241758 L593.379133,338.241758 L594.603327,338.199907 C595.250202,338.199907 595.910988,338.144105 596.564819,338.095279 L597.775101,338.018551 L599.284476,337.899973 C600.341734,337.809295 601.371169,337.704667 602.442339,337.579113 L603.70131,337.418683 L604.320363,337.341956 C605.370665,337.195476 606.407056,337.042021 607.457359,336.860666 C608.236391,336.742087 609.001512,336.595608 609.780544,336.456103 L609.870968,269.703297 Z" id="Path" fill="#FFFFFF" fill-rule="nonzero" opacity="0.1"></path>
                                    <rect id="Rectangle" fill="#FFFFFF" fill-rule="nonzero" opacity="0.1" x="260.864516" y="109.483516" width="39.1741935" height="77.4395604"></rect>
                                    <polygon id="Path" fill="#FFFFFF" fill-rule="nonzero" opacity="0.1" points="259.974194 189.593407 259.974194 267.032967 456.735484 267.032967 456.735484 233.632162 351.929185 233.632162 351.929185 253.337734 299.612963 253.337734 299.612963 189.593407"></polygon>
                                    <path d="M259.974194,353.159329 L260.600907,353.159329 L260.600907,404.10989 C267.717591,403.570952 274.806421,402.841527 281.867396,401.921615 C313.45153,397.833901 344.399314,389.801069 373.987365,378.010881 C382.454965,374.609996 390.748478,370.907119 398.867904,366.902251 C412.344709,360.271168 425.344404,352.710117 437.772905,344.273818 C440.87862,342.164526 443.935591,340.006451 446.943818,337.799592 C449.032864,336.259437 451.12191,334.691405 453.210956,333.165188 C454.666325,332.119834 456.13562,331.07448 457.625806,330.091847 L457.625806,269.879448 L300.822008,269.879448 C300.933424,269.524028 301.037876,269.182545 301.149292,268.813187 C301.030912,269.168607 300.912533,269.51009 300.808081,269.879448 L260.600907,269.879448 L260.600907,353.124484 L259.974194,353.159329 Z" id="Path" fill="#FFFFFF" fill-rule="nonzero" opacity="0.1"></path>
                                    <path d="M156.696774,103.252747 L182.516129,103.252747 L182.516129,96.0760728 L170.948168,96.0760728 L170.948168,74.7692308 C169.947095,75.0970283 168.946021,75.4666724 167.9519,75.7805211 L167.9519,96.0760728 L156.696774,96.0760728 L156.696774,103.252747 Z" id="Path" fill="#6C63FF" fill-rule="nonzero" opacity="0.1"></path>
                                    <polygon id="Path" fill="#FFFFFF" fill-rule="nonzero" opacity="0.1" points="95.2645161 186.923077 222.172195 186.923077 222.130439 186.923077 222.193072 186.923077 245.729032 186.923077 245.729032 108.470968 239.062134 108.470968 239.062134 166.469766 208.580908 166.469766 208.580908 132.145658 183.395622 132.145658 183.395622 105.032967 157.549212 105.032967 157.549212 132.145658 132.370885 132.145658 132.370885 166.462778 95.2645161 166.462778"></polygon>
                                    <path d="M93.7567165,189.593407 L93.7567165,267.277767 L244.83871,267.277767 L244.83871,189.593407 L93.7567165,189.593407 Z M99.0324625,381.451819 C128.181119,392.520785 158.65766,399.733695 189.684454,402.906504 L189.817221,402.906504 C195.682266,403.52454 201.563617,404.00317 207.461272,404.342393 L207.677892,404.342393 L207.677892,404.342393 C220.039209,405.039426 232.449441,405.199744 244.83871,404.739702 L244.83871,269.675561 L93.7567165,269.675561 L93.7567165,297.215346 L52.5290323,297.215346 L52.7456523,358.700653 L99.0324625,381.451819 Z" id="Shape" fill="#FFFFFF" fill-rule="nonzero" opacity="0.1"></path>
                                    <rect id="Rectangle" fill="#2B5FA9" fill-rule="nonzero" opacity="0.1" x="259.974194" y="130.846154" width="22.2580645" height="24.9230769"></rect>
                                    <rect id="Rectangle" fill="#6C63FF" fill-rule="nonzero" opacity="0.1" x="259.974194" y="181.582418" width="22.2580645" height="5.34065934"></rect>
                                    <rect id="Rectangle" fill="#2B5FA9" fill-rule="nonzero" opacity="0.1" x="259.974194" y="189.593407" width="22.2580645" height="16.021978"></rect>
                                    <rect id="Rectangle" fill="#2B5FA9" fill-rule="nonzero" opacity="0.1" x="259.974194" y="231.428571" width="22.2580645" height="24.9230769"></rect>
                                    <rect id="Rectangle" fill="#2B5FA9" fill-rule="nonzero" opacity="0.1" x="259.974194" y="283.054945" width="22.2580645" height="24.9230769"></rect>
                                    <rect id="Rectangle" fill="#6C63FF" fill-rule="nonzero" opacity="0.1" x="366.812903" y="266.142857" width="91.7032258" height="1.78021978"></rect>
                                    <rect id="Rectangle" fill="#6C63FF" fill-rule="nonzero" opacity="0.1" x="366.812903" y="269.703297" width="91.7032258" height="7.12087912"></rect>
                                    <rect id="Rectangle" fill="#6C63FF" fill-rule="nonzero" opacity="0.1" x="366.812903" y="299.076923" width="91.7032258" height="10.6813187"></rect>
                                    <rect id="Rectangle" fill="#2B5FA9" fill-rule="nonzero" opacity="0.1" transform="translate(588.503226, 130.846154) rotate(-180.000000) translate(-588.503226, -130.846154) " x="579.6" y="122.835165" width="17.8064516" height="16.021978"></rect>
                                    <rect id="Rectangle" fill="#2B5FA9" fill-rule="nonzero" opacity="0.1" transform="translate(588.503226, 167.340659) rotate(-180.000000) translate(-588.503226, -167.340659) " x="579.6" y="159.32967" width="17.8064516" height="16.021978"></rect>
                                    <rect id="Rectangle" fill="#2B5FA9" fill-rule="nonzero" opacity="0.1" transform="translate(588.503226, 204.725275) rotate(-180.000000) translate(-588.503226, -204.725275) " x="579.6" y="196.714286" width="17.8064516" height="16.021978"></rect>
                                    <rect id="Rectangle" fill="#2B5FA9" fill-rule="nonzero" opacity="0.1" transform="translate(588.503226, 241.219780) rotate(-180.000000) translate(-588.503226, -241.219780) " x="579.6" y="233.208791" width="17.8064516" height="16.021978"></rect>
                                    <rect id="Rectangle" fill="#2B5FA9" fill-rule="nonzero" opacity="0.1" transform="translate(588.503226, 279.494505) rotate(-180.000000) translate(-588.503226, -279.494505) " x="579.6" y="271.483516" width="17.8064516" height="16.021978"></rect>
                                    <rect id="Rectangle" fill="#2B5FA9" fill-rule="nonzero" opacity="0.1" transform="translate(588.503226, 315.989011) rotate(-180.000000) translate(-588.503226, -315.989011) " x="579.6" y="307.978022" width="17.8064516" height="16.021978"></rect>
                                    <rect id="Rectangle" fill="#2B5FA9" fill-rule="nonzero" opacity="0.1" transform="translate(130.877419, 204.725275) rotate(-180.000000) translate(-130.877419, -204.725275) " x="121.974194" y="196.714286" width="17.8064516" height="16.021978"></rect>
                                    <rect id="Rectangle" fill="#2B5FA9" fill-rule="nonzero" opacity="0.1" transform="translate(199.432258, 243.890110) rotate(-180.000000) translate(-199.432258, -243.890110) " x="190.529032" y="235.879121" width="17.8064516" height="16.021978"></rect>
                                    <rect id="Rectangle" fill="#2B5FA9" fill-rule="nonzero" opacity="0.1" transform="translate(130.877419, 243.890110) rotate(-180.000000) translate(-130.877419, -243.890110) " x="121.974194" y="235.879121" width="17.8064516" height="16.021978"></rect>
                                    <rect id="Rectangle" fill="#2B5FA9" fill-rule="nonzero" opacity="0.1" transform="translate(199.432258, 283.945055) rotate(-180.000000) translate(-199.432258, -283.945055) " x="190.529032" y="275.934066" width="17.8064516" height="16.021978"></rect>
                                    <rect id="Rectangle" fill="#2B5FA9" fill-rule="nonzero" opacity="0.1" transform="translate(130.877419, 283.945055) rotate(-180.000000) translate(-130.877419, -283.945055) " x="121.974194" y="275.934066" width="17.8064516" height="16.021978"></rect>
                                    <rect id="Rectangle" fill="#2B5FA9" fill-rule="nonzero" opacity="0.1" transform="translate(199.432258, 323.109890) rotate(-180.000000) translate(-199.432258, -323.109890) " x="190.529032" y="315.098901" width="17.8064516" height="16.021978"></rect>
                                    <rect id="Rectangle" fill="#2B5FA9" fill-rule="nonzero" opacity="0.1" transform="translate(130.877419, 323.109890) rotate(-180.000000) translate(-130.877419, -323.109890) " x="121.974194" y="315.098901" width="17.8064516" height="16.021978"></rect>
                                    <path d="M259.974194,353.373626 L260.600787,353.373626 L260.600787,353.373626 L259.974194,353.373626 Z M300.800205,270.287433 L300.800205,270.287433 C300.9116,269.932839 301.016032,269.592151 301.134388,269.216699 C301.016032,269.578245 300.904638,269.932839 300.800205,270.287433 Z M574.572591,104.142857 L574.572591,106.534627 L602.748387,106.534627 L602.748387,104.142857 L574.572591,104.142857 Z M259.974194,353.373626 L260.600787,353.373626 L260.600787,353.373626 L259.974194,353.373626 Z M300.800205,270.287433 L300.800205,270.287433 C300.9116,269.932839 301.016032,269.592151 301.134388,269.216699 C301.016032,269.578245 300.904638,269.932839 300.800205,270.287433 Z M259.974194,353.373626 L260.600787,353.373626 L260.600787,353.373626 L259.974194,353.373626 Z M300.800205,270.287433 L300.800205,270.287433 C300.9116,269.932839 301.016032,269.592151 301.134388,269.216699 C301.016032,269.578245 300.904638,269.932839 300.800205,270.287433 Z" id="Shape" fill="#6C63FF" fill-rule="nonzero" opacity="0.1"></path>
                                    <ellipse id="Oval" fill="#000000" fill-rule="nonzero" opacity="0.1" cx="226.587097" cy="162.445055" rx="1.33548387" ry="1.33516484"></ellipse>
                                </g>
                                <g id="undraw_laravel_and_vue_59tp" transform="translate(331.000000, 124.000000)">
                                    <path d="M264,182.554754 C264,195.99644 206.058085,221 133.071926,221 C60.085766,221 0,197.546651 0,184.104966 C0,170.66328 60.085766,172.323358 133.071926,172.323358 C206.058085,172.323358 264,169.113072 264,182.554754 Z" id="Path" fill="#3F3D56" fill-rule="nonzero"></path>
                                    <path d="M264,182.554754 C264,195.99644 206.058085,221 133.071926,221 C60.085766,221 0,197.546651 0,184.104966 C0,170.66328 60.085766,172.323358 133.071926,172.323358 C206.058085,172.323358 264,169.113072 264,182.554754 Z" id="Path" fill="#000000" fill-rule="nonzero" opacity="0.1"></path>
                                    <ellipse id="Oval" fill="#3F3D56" fill-rule="nonzero" cx="132" cy="184.46371" rx="132" ry="24.0604839"></ellipse>
                                    <polygon id="Path" fill="#2F2E41" fill-rule="nonzero" points="182.222222 101.58871 182.222222 166.356233 193.024987 184.011942 193.847261 185.354839 236.472299 185.354839 237.333333 101.58871"></polygon>
                                    <polygon id="Path" fill="#000000" fill-rule="nonzero" opacity="0.1" points="182.222222 102.479839 182.222222 166.902116 193.109656 184.46371 193.777778 102.479839"></polygon>
                                    <polygon id="Path" fill="#2F2E41" fill-rule="nonzero" points="80 99.8064516 80 164.573975 69.1972957 182.229684 68.3750264 183.572581 25.7499183 183.572581 24.8888889 99.8064516"></polygon>
                                    <polygon id="Path" fill="#000000" fill-rule="nonzero" opacity="0.1" points="80 100.697581 80 165.119857 69.112858 182.681452 68.4444444 100.697581"></polygon>
                                    <polygon id="Path" fill="#2F2E41" fill-rule="nonzero" points="249.777778 99.4635665 249.777778 103.370968 18.6666667 103.370968 18.6666667 97.7271505 40.1452678 86.4395161 230.876388 86.4395161"></polygon>
                                    <polygon id="Path" fill="#000000" fill-rule="nonzero" opacity="0.1" points="249.777778 98.7780902 249.777778 102.479839 18.6666667 102.479839 18.6666667 97.1330645"></polygon>
                                    <polygon id="Path" fill="#000000" fill-rule="nonzero" opacity="0.1" points="52.1085937 118.520161 41.6789433 118.520161 37.3333333 115.846774 56.8888889 115.846774"></polygon>
                                    <polygon id="Path" fill="#000000" fill-rule="nonzero" opacity="0.1" points="52.1085937 130.995968 41.6789433 130.995968 37.3333333 128.322581 56.8888889 128.322581"></polygon>
                                    <polygon id="Path" fill="#000000" fill-rule="nonzero" opacity="0.1" points="52.1085937 148.818548 41.6789433 148.818548 37.3333333 146.145161 56.8888889 146.145161"></polygon>
                                    <polygon id="Path" fill="#000000" fill-rule="nonzero" opacity="0.1" points="52.1085937 165.75 41.6789433 165.75 37.3333333 163.076613 56.8888889 163.076613"></polygon>
                                    <polygon id="Path" fill="#000000" fill-rule="nonzero" opacity="0.1" points="209.22474 120.302419 219.65439 120.302419 224 117.629032 204.444444 117.629032"></polygon>
                                    <polygon id="Path" fill="#000000" fill-rule="nonzero" opacity="0.1" points="209.22474 132.778226 219.65439 132.778226 224 130.104839 204.444444 130.104839"></polygon>
                                    <polygon id="Path" fill="#000000" fill-rule="nonzero" opacity="0.1" points="209.22474 149.709677 219.65439 149.709677 224 147.03629 204.444444 147.03629"></polygon>
                                    <polygon id="Path" fill="#000000" fill-rule="nonzero" opacity="0.1" points="209.22474 167.532258 219.65439 167.532258 224 164.858871 204.444444 164.858871"></polygon>
                                    <path d="M163.451315,75.3962379 L162.036138,84.3837422 C162.036138,84.3837422 155.069176,88.0653639 159.967823,88.1736479 C164.866471,88.281932 187.94453,88.1736479 187.94453,88.1736479 C187.94453,88.1736479 192.407738,88.1736479 185.331931,84.2754581 L183.916766,74.8548387 L163.451315,75.3962379 Z" id="Path" fill="#3F3D56" fill-rule="nonzero"></path>
                                    <path d="M158.980921,88.2001018 C159.932406,87.4277827 160.954993,86.7482022 162.034832,86.1705655 L163.450064,77.0987951 L183.916484,77.1181241 L185.331716,86.0612631 C186.494557,86.6638218 187.590754,87.3880095 188.602063,88.2217742 C189.510896,88.013587 190.504085,87.239921 185.331716,84.3637914 L183.916484,74.8548387 L163.450064,75.4013326 L162.034823,84.4730939 C162.034823,84.4730939 156.180261,87.5961323 158.980921,88.2001018 Z" id="Path" fill="#000000" fill-rule="nonzero" opacity="0.1"></path>
                                    <rect id="Rectangle" fill="#3F3D56" fill-rule="nonzero" x="127.111111" y="11.5846774" width="93.3333333" height="65.0524194" rx="3"></rect>
                                    <path d="M130.777778,15.1491935 L215.888889,15.1491935 C216.441174,15.1491935 216.888889,15.5969088 216.888889,16.1491935 L216.888889,63.1612903 C216.888889,63.7135751 216.441174,64.1612903 215.888889,64.1612903 L130.777778,64.1612903 C130.225493,64.1612903 129.777778,63.7135751 129.777778,63.1612903 L129.777778,16.1491935 C129.777778,15.5969088 130.225493,15.1491935 130.777778,15.1491935 Z" id="Rectangle" fill="#F2F2F2" fill-rule="nonzero" opacity="0.195056734"></path>
                                    <ellipse id="Oval" fill="#F2F2F2" fill-rule="nonzero" cx="173.777778" cy="13.8125" rx="1" ry="1"></ellipse>
                                    <path d="M220.444444,67.7258065 L220.444444,73.3809153 C220.444554,74.2445412 220.098856,75.0728266 219.483424,75.6835026 C218.867991,76.2941786 218.033253,76.637205 217.1629,76.6370967 L130.392656,76.6370967 C129.522302,76.637205 128.687565,76.2941786 128.072132,75.6835026 C127.456699,75.0728266 127.111001,74.2445412 127.111111,73.3809153 L127.111111,67.7258065 L220.444444,67.7258065 Z" id="Path" fill="#3F3D56" fill-rule="nonzero"></path>
                                    <ellipse id="Oval" fill="#F2F2F2" fill-rule="nonzero" cx="173.777778" cy="72.6270161" rx="2.22222222" ry="2.22782258"></ellipse>
                                    <polygon id="Path" fill="#3F3D56" fill-rule="nonzero" points="170.666667 94.1882391 170.666667 95.3508065 111.111111 95.3508065 111.111111 94.4209468 111.193104 94.1882391 112.660955 90.0040323 169.449108 90.0040323"></polygon>
                                    <path d="M192.870263,93.1662714 C192.760804,93.659507 192.347536,94.1798445 191.413778,94.6719 C188.062957,96.4376843 181.249629,94.2010264 181.249629,94.2010264 C181.249629,94.2010264 176,93.2592792 176,90.7871747 C176.1474,90.6807955 176.301107,90.5844639 176.460178,90.4987699 C177.868957,89.7132485 182.540004,87.7749144 190.822267,90.5808426 C191.432428,90.7826999 191.977438,91.1591237 192.396587,91.668182 C192.773283,92.0585952 192.949446,92.6157449 192.870263,93.1662714 L192.870263,93.1662714 Z" id="Path" fill="#3F3D56" fill-rule="nonzero"></path>
                                    <path d="M192.870748,93.2516917 C188.876374,94.9429115 185.316029,95.0691135 181.662126,92.2648551 C179.819406,90.851306 178.145289,90.5015209 176.888889,90.5279756 C178.260906,89.7259001 182.810064,87.7467178 190.876205,90.6117778 C191.470444,90.8178891 192.001233,91.2022455 192.409444,91.7220317 C192.776306,92.120675 192.947868,92.6895657 192.870748,93.2516917 L192.870748,93.2516917 Z" id="Path" fill="#000000" fill-rule="nonzero" opacity="0.1"></path>
                                    <ellipse id="Oval" fill="#F2F2F2" fill-rule="nonzero" cx="188" cy="92.2318548" rx="1.33333333" ry="1"></ellipse>
                                    <polygon id="Path" fill="#000000" fill-rule="nonzero" opacity="0.1" points="170.666667 94.4596774 170.666667 95.3508065 111.111111 95.3508065 111.111111 94.6380521 111.193104 94.4596774"></polygon>
                                    <ellipse id="Oval" fill="#FFB9B9" fill-rule="nonzero" cx="120.888889" cy="14.2580645" rx="11.5555556" ry="11.5846774"></ellipse>
                                    <path d="M112,20.2903204 L112,39.2096774 L131.555556,39.2096774 C131.555556,39.2096774 129.032259,23.4435481 130.293896,18.7137097 L112,20.2903204 Z" id="Path" fill="#FFB9B9" fill-rule="nonzero"></path>
                                    <path d="M150.250377,45.6612448 C150.250377,45.6612448 131.977877,36.694653 131.977877,36.0762682 C131.977877,35.4578834 130.119659,31.4383761 128.880844,31.4383761 C127.64203,31.4383761 117.112115,28.0372536 111.227756,32.9843381 L110.608344,37.0038454 L88,51.845102 L94.1940677,74.4161808 C94.1940677,74.4161808 98.2202088,78.7448805 96.9813971,81.8368106 C95.7425854,84.9287407 97.9105058,100.697581 97.9105058,100.697581 L146.533936,99.1516187 L146.533936,78.1264957 C146.533936,78.1264957 148.082453,73.1794081 149.011565,71.6334461 C149.940677,70.0874841 149.011565,65.449589 149.011565,65.449589 L156.444444,56.1738017 C156.444444,56.1738017 155.515336,47.5164022 150.250377,45.6612448 Z" id="Path" fill="#D0CDE1" fill-rule="nonzero"></path>
                                    <path d="M88.5719014,59.3264957 L89.9898379,51.6854839 C89.9898379,51.6854839 81.7973123,86.9277492 82.7426022,90.9821707 C83.6878922,95.0365922 90.6200313,101.274163 91.5653212,101.586042 C92.5106112,101.89792 101.333333,74.7644848 101.333333,74.7644848 L88.5719014,59.3264957 Z" id="Path" fill="#000000" fill-rule="nonzero" opacity="0.1"></path>
                                    <path d="M93.5687096,50.7943548 L88.2120602,51.7291698 C88.2120602,51.7291698 80.0195345,86.9405873 80.9648245,90.9914584 C81.9101145,95.0423296 88.8422535,101.274439 89.7875435,101.586044 C90.7328334,101.897649 99.5555556,74.7879738 99.5555556,74.7879738 L93.5687096,50.7943548 Z" id="Path" fill="#D0CDE1" fill-rule="nonzero"></path>
                                    <path d="M151.688102,61.2144021 L154.339176,56.141129 C154.339176,56.141129 158.081868,90.8853624 155.58675,94.2675607 C153.091632,97.6497591 143.221651,98.9153226 143.221651,98.9153226 L143.111111,73.6669978 L151.688102,61.2144021 Z" id="Path" fill="#000000" fill-rule="nonzero" opacity="0.1"></path>
                                    <path d="M152.062371,51.6854839 L156.116953,55.7217939 C156.116953,55.7217939 159.859646,90.806641 157.364528,94.2219966 C154.86941,97.6373521 144.999429,98.9153226 144.999429,98.9153226 L144.888889,73.4194768 L152.062371,51.6854839 Z" id="Path" fill="#D0CDE1" fill-rule="nonzero"></path>
                                    <path d="M92.4862631,105.15457 C92.4862631,105.15457 83.5933023,101.745103 82.0600358,108.254083 C80.5267693,114.763064 85.7398784,143.898502 85.7398784,143.898502 C85.7398784,143.898502 89.1130707,165.905055 91.2596468,166.52496 C93.406223,167.144865 102.91249,167.454813 104.445757,164.665251 C105.979023,161.875689 99.8459513,133.360152 99.8459513,133.360152 L135.417782,132.740244 C135.417782,132.740244 133.271206,157.536359 132.044593,159.706019 C130.81798,161.875679 130.817968,169.314516 132.044593,169.314516 C133.271219,169.314516 146.763973,168.694608 147.683933,166.834905 C148.603892,164.975202 153.817008,123.131747 153.817008,123.131747 C153.817008,123.131747 158.11016,108.564028 153.203695,109.493884 C148.29723,110.42374 92.4862631,105.15457 92.4862631,105.15457 Z" id="Path" fill="#3F3D56" fill-rule="nonzero"></path>
                                    <path d="M145.442941,165.854732 C145.442941,165.854732 148.547967,163.614045 150.100481,165.854732 C151.652996,168.095418 152.274001,170.656202 145.442941,174.49738 C138.611881,178.338558 133.333333,177.378265 133.333333,176.738067 L133.333333,167.455223 L145.442941,165.854732 Z" id="Path" fill="#2F2E41" fill-rule="nonzero"></path>
                                    <path d="M91.8903934,164.963604 C91.8903934,164.963604 88.7853677,162.722915 87.2328533,164.963604 C85.680339,167.204293 85.0593283,169.76508 91.8903934,173.606252 C98.7214585,177.447425 104,176.487138 104,175.846942 L104,166.564097 L91.8903934,164.963604 Z" id="Path" fill="#2F2E41" fill-rule="nonzero"></path>
                                    <path d="M120.895443,0.00604563752 C119.726883,-0.0349804519 118.560344,0.133051736 117.449659,0.50238826 C116.588387,0.852277317 115.765661,1.29218698 114.994891,1.81494715 L109.815458,5.06997603 C108.916283,5.46324833 108.339503,6.36458708 108.353458,7.35465496 L107.706234,12.253174 C107.542901,13.4893651 107.392343,14.8113696 107.93991,15.9290457 C108.396954,16.861917 109.268529,17.5002848 109.985205,18.2479483 C111.132093,19.4494486 111.904027,20.9652818 112.204932,22.6067902 C112.575461,24.6520087 112.338245,27.1149236 113.93976,28.4201263 C114.806917,29.126833 115.988883,29.260513 117.100962,29.3262138 C120.141969,29.5056444 123.193025,29.3869659 126.211389,28.9718406 C126.691271,28.9355247 127.159197,28.8030202 127.587884,28.5820533 C128.13235,28.2565935 128.475127,27.682082 128.7955,27.130842 C129.952101,25.1407502 131.144218,23.0237146 131.13166,20.7157766 C131.125445,19.5740014 130.836366,18.3477395 131.378832,17.3461697 C131.6655,16.9204707 131.976618,16.5121238 132.310586,16.123231 C132.982236,15.1694411 133.112987,13.9439511 133.222448,12.7784548 C133.572065,9.05580457 133.206568,6.2228833 130.491764,3.60057718 C127.957529,1.15269716 124.351626,0.0285762297 120.895443,0.00604563752 Z" id="Path" fill="#2F2E41" fill-rule="nonzero"></path>
                                    <polygon id="Path" fill="#2F2E41" fill-rule="nonzero" points="92.1396561 141.689516 81.7777778 194.266129 86.9585627 194.266129 96.8888889 142.551655"></polygon>
                                    <polygon id="Path" fill="#2F2E41" fill-rule="nonzero" points="125.333333 146.0958 131.733455 206.741935 136 206.741935 132.159927 144.362903"></polygon>
                                    <polygon id="Path" fill="#2F2E41" fill-rule="nonzero" points="143.111111 144.334681 152.143409 184.46371 156.444444 184.46371 147.842373 143.471774"></polygon>
                                    <polygon id="Path" fill="#2F2E41" fill-rule="nonzero" points="108.000023 144.362903 106.666667 176.443548 110.222177 176.443548 112.888889 144.362903"></polygon>
                                    <path d="M84.7341922,135.890994 C84.7341922,135.890994 77.909828,90.0771609 97.1033812,88.7926624 C116.296934,87.5081639 143.59447,88.7926624 143.59447,88.7926624 C143.59447,88.7926624 159.37585,87.5081609 154.684089,135.890994 C154.684089,135.890994 158.949326,150.020492 120.562189,148.735991 C82.1750526,147.451489 84.7341922,135.890994 84.7341922,135.890994 Z" id="Path" fill="#206ECB" fill-rule="nonzero"></path>
                                    <path d="M260.444444,154.794005 C260.444444,162.914595 255.668815,165.75 249.777778,165.75 C243.88674,165.75 239.111111,162.914595 239.111111,154.794005 C239.111111,146.673414 249.777778,136.342742 249.777778,136.342742 C249.777778,136.342742 260.444444,146.673414 260.444444,154.794005 Z" id="Path" fill="#206ECB" fill-rule="nonzero"></path>
                                    <polygon id="Path" fill="#3F3D56" fill-rule="nonzero" points="249.703479 157.693996 254.222222 149.29312 249.720296 156.628624 249.769217 153.575426 252.88363 147.497305 249.782058 152.767309 249.86981 147.275779 253.204978 142.437019 249.883569 146.412359 249.938605 136.342742 249.608696 149.102043 246.231334 143.849127 249.567725 150.178601 249.25188 156.311715 249.242402 156.148911 245.333333 150.598971 249.230478 156.724007 249.191035 157.491112 249.184003 157.502608 249.187366 157.565679 248.385678 165.75 249.456736 165.75 249.585153 165.088842 253.472818 158.978408 249.594631 164.48454"></polygon>
                                    <polygon id="Path" fill="#2F2E41" fill-rule="nonzero" points="256.970983 183.572581 244.191553 183.572581 240.888889 164.858871 259.555556 164.858871"></polygon>
                                </g>
                            </g>
                        </g>
                    </g>
                </g>
            </g>
        </g>
    </g>
</svg>