<?xml version="1.0" encoding="UTF-8"?>
<svg width="20px" height="14px" viewBox="0 0 20 14" version="1.1" xmlns="http://www.w3.org/2000/svg" xmlns:xlink="http://www.w3.org/1999/xlink">
    <!-- Generator: Sketch 53.2 (72643) - https://sketchapp.com -->
    <title>menu</title>
    <desc>Created with Sketch.</desc>
    <g id="Dashboard" stroke="none" stroke-width="1" fill="none" fill-rule="evenodd">
        <g id="4(a)" transform="translate(-278.000000, -228.000000)" fill="#0087CF" fill-rule="nonzero">
            <g id="menu" transform="translate(278.000000, 228.000000)">
                <path d="M18.5323741,7.78903441 L0.805755396,7.78903441 C0.360976856,7.78903441 0,7.42805755 0,6.98327901 C0,6.53850047 0.360976856,6.17752362 0.805755396,6.17752362 L18.5323741,6.17752362 C18.9771526,6.17752362 19.3381295,6.53850047 19.3381295,6.98327901 C19.3381295,7.42805755 18.9771526,7.78903441 18.5323741,7.78903441 Z" id="Path"></path>
                <path d="M18.5323741,1.61151079 L0.805755396,1.61151079 C0.360976856,1.61151079 0,1.25053394 0,0.805755396 C0,0.360976856 0.360976856,0 0.805755396,0 L18.5323741,0 C18.9771526,0 19.3381295,0.360976856 19.3381295,0.805755396 C19.3381295,1.25053394 18.9771526,1.61151079 18.5323741,1.61151079 Z" id="Path"></path>
                <path d="M18.5323741,13.9663613 L0.805755396,13.9663613 C0.360976856,13.9663613 0,13.6053844 0,13.1606059 C0,12.7158273 0.360976856,12.3548505 0.805755396,12.3548505 L18.5323741,12.3548505 C18.9771526,12.3548505 19.3381295,12.7158273 19.3381295,13.1606059 C19.3381295,13.6053844 18.9771526,13.9663613 18.5323741,13.9663613 Z" id="Path"></path>
            </g>
        </g>
    </g>
</svg>