<?xml version="1.0" encoding="UTF-8"?>
<svg width="83px" height="75px" viewBox="0 0 83 75" version="1.1" xmlns="http://www.w3.org/2000/svg" xmlns:xlink="http://www.w3.org/1999/xlink">
    <!-- Generator: Sketch 53.2 (72643) - https://sketchapp.com -->
    <title>multi access</title>
    <desc>Created with Sketch.</desc>
    <g id="Login-&amp;-Registration" stroke="none" stroke-width="1" fill="none" fill-rule="evenodd">
        <g id="1(a)-Registration-Screen" transform="translate(-168.000000, -485.000000)">
            <g id="Group-10" transform="translate(120.000000, 84.000000)">
                <g id="Group-6" transform="translate(48.000000, 398.000000)">
                    <g id="Group-4" transform="translate(-0.000000, 0.000000)">
                        <g id="Group-3-Copy" transform="translate(0.000000, 3.000000)">
                            <g id="multi-access" transform="translate(0.000000, -0.000000)">
                                <path d="M54.8140128,8.60512392 L73.8561115,26.8045188 C84.7197178,37.1873587 85.1094561,54.4110064 74.7266162,65.2746127 C69.7583808,70.472897 62.9344523,73.4932092 55.7461081,73.6755008 L34.3492648,74.2181105 C15.8536719,74.6871464 0.479802691,60.0737346 0.0107667828,41.5781418 C-0.0657970267,38.5589848 0.266261702,35.5433394 0.99791694,32.613177 L3.26841472,23.5201959 C7.42014713,6.89317054 24.2646585,-3.22005258 40.8916838,0.931679826 C46.1200362,2.23718814 50.9182724,4.88178856 54.8140128,8.60512392 Z" id="Rectangle" fill-opacity="0.217111014" fill="#FFFFFF" opacity="0.477422805"></path>
                                <g id="promote" transform="translate(15.000000, 14.000000)" fill-rule="nonzero">
                                    <path d="M7.92928643,11.3246231 L7.92928643,8.53869347 C7.93156772,6.91175554 8.99624146,5.47716482 10.5527638,5.00369849 C10.2056342,4.89829016 9.84483104,4.8447671 9.48205025,4.84486432 L9.04136683,4.84486432 C7.00213268,4.8470572 5.34946043,6.4994597 5.34693467,8.53869347 L5.34693467,11.3246231 C5.34919439,13.3640178 7.00185158,15.016729 9.04124623,15.0190553 L9.48192965,15.0190553 C9.84471044,15.0191525 10.2055136,14.9656294 10.5526432,14.8602211 C8.99600331,14.3865786 7.93136504,12.951725 7.92928643,11.3246231 L7.92928643,11.3246231 Z" id="Path" fill-opacity="0.181080638" fill="#FAFCFF"></path>
                                    <path d="M22.832201,9.05499497 L22.832201,5.87336683 C22.8349404,3.88285173 24.1919782,2.14961042 26.1236985,1.66938693 C25.783662,1.58516449 25.4346534,1.54256098 25.0843417,1.54251256 L24.5808241,1.54251256 C22.1900419,1.54517106 20.2525743,3.48258466 20.2498492,5.87336683 L20.2498492,9.05559799 C20.2525743,11.4463802 22.1900419,13.3837938 24.5808241,13.3864523 L25.0843417,13.3864523 C25.4346534,13.3864038 25.783662,13.3438003 26.1236985,13.2595779 C24.1917603,12.7792999 22.8346639,11.045735 22.832201,9.05499497 L22.832201,9.05499497 Z" id="Path" fill-opacity="0.181080638" fill="#FAFCFF"></path>
                                    <path d="M38.9293266,11.3246231 L38.9293266,8.53869347 C38.931396,6.91157714 39.9961113,5.47673453 41.552804,5.00321608 C41.2056314,4.897815 40.8447896,4.84429223 40.4819698,4.84438191 L40.0412864,4.84438191 C38.0019113,4.84664175 36.3492347,6.49931832 36.3469749,8.53869347 L36.3469749,11.3246231 C36.3492346,13.3640178 38.0018918,15.016729 40.0412864,15.0190553 L40.4819698,15.0190553 C40.8447896,15.019145 41.2056314,14.9656222 41.552804,14.8602211 C39.9961164,14.3866221 38.9314214,12.9517581 38.9293266,11.3246231 L38.9293266,11.3246231 Z" id="Path" fill-opacity="0.181080638" fill="#FAFCFF"></path>
                                    <path d="M6.16028141,18.8928241 C5.91019685,18.6935223 5.67858634,18.4720836 5.46826131,18.231196 C3.19000326,18.4924295 1.46556972,20.4137533 1.45121608,22.7068945 L1.45121608,27.2080402 L4.03356784,27.2080402 L4.03356784,22.7068945 C4.04116512,21.1548679 4.84396721,19.7151143 6.16028141,18.8928241 Z" id="Path" fill-opacity="0.181080638" fill="#FAFCFF"></path>
                                    <path d="M21.7222915,17.9140101 C21.2778345,17.6138132 20.8760042,17.2549043 20.5277186,16.8470352 C17.8437528,17.1245491 15.7988088,19.3776772 15.7819899,22.0758995 L15.7819899,30.0077186 L19.655397,30.0077186 L19.655397,22.0758995 C19.6618612,20.4431874 20.4253459,18.9058381 21.7222915,17.9140101 Z" id="Path" fill-opacity="0.181080638" fill="#FAFCFF"></path>
                                    <path d="M37.8944322,19.5058492 C37.3552279,19.2071107 36.8724183,18.8163815 36.4678191,18.3513166 C35.8322977,18.4181422 35.2187087,18.6214515 34.6690251,18.9473367 C35.1715707,19.9135604 35.4334987,20.9867992 35.4325628,22.0758995 L35.4325628,27.3286432 L38.4021709,27.3286432 L38.4021709,22.0758995 C38.4020126,21.1943152 38.2295324,20.3212625 37.8944322,19.5058492 L37.8944322,19.5058492 Z" id="Path" fill-opacity="0.181080638" fill="#FAFCFF"></path>
                                    <path d="M24.8547136,0.0750150754 C21.5301395,0.0788035396 18.8360033,2.77299375 18.8322814,6.09756784 L18.8322814,8.74697487 C18.8226242,10.9050245 19.968388,12.9032894 21.8357208,13.9851116 C23.7030537,15.0669338 26.006494,15.0669338 27.8738269,13.9851116 C29.7411597,12.9032894 30.8869236,10.9050245 30.8772663,8.74697487 L30.8772663,6.09756784 C30.8735443,2.77294672 28.1793347,0.0787370913 24.8547136,0.0750150754 Z M29.4300302,8.74637186 C29.4271724,11.2720177 27.3804799,13.3187641 24.8548342,13.3216884 L24.8548342,13.3216884 C22.3291884,13.3187641 20.282496,11.2720177 20.2796382,8.74637186 L20.2796382,6.09756784 C20.2712172,4.45739012 21.1414097,2.93818744 22.5604584,2.11565803 C23.9795071,1.29312862 25.7302818,1.29312862 27.1493305,2.11565803 C28.5683792,2.93818744 29.4385718,4.45739012 29.4301508,6.09756784 L29.4300302,8.74637186 Z" id="Shape" fill="#FFFFFF"></path>
                                    <path d="M14.2938693,30.6056683 C14.2938693,31.0053116 14.6178442,31.3292864 15.0174874,31.3292864 L34.6921809,31.3292864 C35.0918241,31.3292864 35.415799,31.0053116 35.415799,30.6056683 L35.415799,28.679397 L48.9648241,28.679397 C49.3644674,28.679397 49.6884422,28.3554221 49.6884422,27.9557789 L49.6884422,22.7376482 C49.6858792,19.5999617 47.2463652,17.0039332 44.1148945,16.8065126 C43.7334271,16.7808241 43.5351558,17.0225126 43.3602814,17.2356181 C42.6238559,18.1356016 41.5132811,18.6453303 40.3507468,18.6169263 C39.1882125,18.5885224 38.1038562,18.0251655 37.4122613,17.0902915 C37.2715156,16.9011021 37.0478861,16.7917592 36.8121407,16.7968643 C35.7584162,16.8201868 34.7303223,17.1262573 33.8354171,17.6830553 C32.6594448,16.2855435 30.9617295,15.4315418 29.1386533,15.3204422 C28.7594774,15.2994573 28.5695276,15.5293266 28.3689648,15.7739095 C27.5074556,16.8266959 26.2082775,17.4229479 24.8483323,17.3896883 C23.4883871,17.3564286 22.2199093,16.6973804 21.4108945,15.6037387 C21.2702797,15.4144567 21.0466334,15.3050836 20.8108945,15.3103116 C19.0686172,15.3505761 17.4117897,16.0732538 16.1969849,17.3228141 C16.0807236,17.4417286 15.9710955,17.5654673 15.8648442,17.6914975 C15.0298227,17.1703589 14.0778083,16.8661488 13.0953166,16.8065126 C12.7134874,16.7799799 12.5153367,17.0225126 12.3404623,17.2356181 C11.6040189,18.1357429 10.4933387,18.645565 9.33068366,18.6171604 C8.16802865,18.5887558 7.08356932,18.0253047 6.3919598,17.0902915 C6.25111998,16.9012805 6.02762297,16.7919804 5.7919598,16.7968643 C2.56987994,16.879138 0.000519378853,19.5145182 0,22.7376482 L0,27.9557789 C-8.56935963e-16,28.3554221 0.323974854,28.679397 0.72361809,28.679397 L14.2938693,28.679397 L14.2938693,30.6056683 Z M36.5001407,18.2655678 C37.4882527,19.4052105 38.9211967,20.0614891 40.4295524,20.0652116 C41.9379081,20.0689342 43.3740739,19.4197365 44.367799,18.2849849 C46.5875925,18.5975631 48.2390196,20.4959561 48.241206,22.7376482 L48.241206,27.2321608 L35.415799,27.2321608 L35.415799,21.9942513 C35.4165354,20.9105726 35.1523884,19.8431372 34.6463518,18.8848643 C35.2104668,18.5429886 35.84381,18.3314072 36.5001407,18.2655678 L36.5001407,18.2655678 Z M20.495397,16.7775678 C21.6053418,18.0814123 23.2302168,18.8343157 24.9425172,18.8381891 C26.6548176,18.8420625 28.2830823,18.0965181 29.3989146,16.7977085 C32.0107106,17.1370536 33.9659307,19.3605036 33.9685628,21.9942513 L33.9685628,29.8816884 L15.7411055,29.8816884 L15.7411055,21.9942513 C15.7418746,19.2888945 17.8017224,17.0287105 20.495397,16.7775678 L20.495397,16.7775678 Z M1.44723618,27.2321608 L1.44723618,22.7376482 C1.46154618,20.4392457 3.19603199,18.5164013 5.48080402,18.2660503 C6.46896055,19.4055021 7.90184355,20.0616086 9.41008447,20.0652386 C10.9183254,20.0688686 12.35435,19.419667 13.3479799,18.2849849 C13.9521287,18.3693305 14.5326112,18.5764785 15.0536683,18.8936683 C14.5526829,19.8502777 14.2919199,20.9143976 14.2938693,21.9942513 L14.2938693,27.2321608 L1.44723618,27.2321608 Z" id="Shape" fill="#FFFFFF"></path>
                                    <path d="M40.3537688,16.5040402 C43.3135869,16.5006507 45.7121482,14.1020894 45.7155377,11.1422714 L45.7155377,8.82307538 C45.7015405,5.87174478 43.3050723,3.48661537 40.3537085,3.48661537 C37.4023448,3.48661537 35.0058766,5.87174478 34.9918794,8.82307538 L34.9918794,11.1422714 C34.9952691,14.1021364 37.3939037,16.5007171 40.3537688,16.5040402 L40.3537688,16.5040402 Z M36.4391156,8.82307538 C36.4510687,6.66958582 38.2001858,4.93015033 40.3537085,4.93015033 C42.5072313,4.93015033 44.2563484,6.66958582 44.2683015,8.82307538 L44.2683015,11.1422714 C44.2655109,13.3030511 42.5145486,15.0540134 40.3537688,15.056804 L40.3537688,15.056804 C38.192942,15.0540799 36.4419063,13.3030981 36.4391156,11.1422714 L36.4391156,8.82307538 Z" id="Shape" fill="#FFFFFF"></path>
                                    <path d="M9.33467337,3.46130653 C6.37485533,3.46469606 3.97629405,5.86325734 3.97290452,8.82307538 L3.97290452,11.1422714 C3.98690174,14.093602 6.38336988,16.4787314 9.33473367,16.4787314 C12.2860975,16.4787314 14.6825656,14.093602 14.6965628,11.1422714 L14.6965628,8.82307538 C14.6931732,5.86321031 12.2945385,3.46462961 9.33467337,3.46130653 Z M13.2493266,11.1422714 C13.2373735,13.2957609 11.4882564,15.0351964 9.33473367,15.0351964 C7.18121094,15.0351964 5.43209379,13.2957609 5.4201407,11.1422714 L5.4201407,8.82307538 C5.43209379,6.66958582 7.18121094,4.93015033 9.33473367,4.93015033 C11.4882564,4.93015033 13.2373735,6.66958582 13.2493266,8.82307538 L13.2493266,11.1422714 Z" id="Shape" fill="#FFFFFF"></path>
                                    <path d="M25.3559397,34.1740704 C25.2202315,34.0383391 25.0361578,33.9620842 24.8442211,33.9620842 C24.6522844,33.9620842 24.4682108,34.0383391 24.3325025,34.1740704 L20.8198191,37.6868744 C20.6345316,37.8691683 20.5612507,38.1368348 20.6278432,38.3880876 C20.6944357,38.6393404 20.8906696,38.8355743 21.1419224,38.9021668 C21.3931752,38.9687593 21.6608418,38.8954784 21.8431357,38.710191 L23.9963819,36.5569447 L23.9963819,46.873206 C23.9963819,47.2728493 24.3203568,47.5968241 24.72,47.5968241 C25.1196432,47.5968241 25.4436181,47.2728493 25.4436181,46.873206 L25.4436181,36.3083819 L27.8453065,38.7100704 C28.0276005,38.8953578 28.295267,38.9686387 28.5465198,38.9020462 C28.7977726,38.8354537 28.9940065,38.6392198 29.060599,38.387967 C29.1271915,38.1367142 29.0539106,37.8690477 28.8686231,37.6867538 L25.3559397,34.1740704 Z" id="Path" fill="#1AE5BE"></path>
                                    <path d="M5.01226131,45.5396985 C5.41190454,45.5396985 5.7358794,45.2157236 5.7358794,44.8160804 L5.7358794,41.4452261 L12.9188744,47.745407 C13.1130292,47.9174403 13.384417,47.9723846 13.6301979,47.8894191 C13.8759789,47.8064537 14.0585467,47.5982729 14.1087189,47.343765 C14.1588911,47.089257 14.068991,46.8273636 13.8730854,46.6573266 L6.93467337,40.5715779 L9.9800201,40.5715779 C10.3796633,40.5715779 10.7036382,40.247603 10.7036382,39.8479598 C10.7036382,39.4483166 10.3796633,39.1243417 9.9800201,39.1243417 L5.01226131,39.1243417 C5.00502513,39.1243417 4.99803015,39.1253065 4.99079397,39.1254271 C4.97776884,39.1254271 4.96474372,39.126392 4.95171859,39.1274774 C4.93869347,39.1285628 4.92832161,39.1298894 4.91662312,39.1314573 C4.90492462,39.1330251 4.89382915,39.134593 4.88249246,39.1366432 C4.87115578,39.1386935 4.85764824,39.1415879 4.84534673,39.1444824 C4.83497487,39.1470151 4.82460302,39.1495477 4.81435176,39.1524422 C4.80229146,39.1559397 4.79023116,39.159799 4.77817085,39.1645025 C4.7679196,39.168 4.75766834,39.1717387 4.74753769,39.1757186 C4.73740704,39.1796985 4.72498492,39.185005 4.71388945,39.1899497 C4.70279397,39.1948945 4.69278392,39.1998392 4.68241206,39.2051457 C4.6720402,39.2104523 4.66215075,39.2158794 4.65226131,39.2216683 C4.64237186,39.2274573 4.63127638,39.2337286 4.62102513,39.240603 C4.61077387,39.2474774 4.60221106,39.2526633 4.59304523,39.2596583 C4.5838794,39.2666533 4.57350754,39.2738894 4.5639799,39.2814874 C4.55445226,39.2890854 4.54540704,39.2966834 4.53648241,39.3045226 C4.52755779,39.3123618 4.51947739,39.319598 4.51115578,39.3275578 C4.50283417,39.3355176 4.49246231,39.3464925 4.48329648,39.3562613 C4.47847236,39.3614472 4.47328643,39.3660302 4.46870352,39.3713367 C4.46641206,39.3738693 4.46460302,39.3767638 4.46231156,39.3792965 C4.45326633,39.3899095 4.44482412,39.4008844 4.43650251,39.4119799 C4.43035176,39.4201809 4.42444221,39.4281407 4.41817085,39.4361005 C4.41069347,39.4468342 4.4038191,39.4581709 4.39694472,39.4693869 C4.39127638,39.4784322 4.38548744,39.4874774 4.38030151,39.4967638 C4.37511558,39.5060503 4.36884422,39.5189548 4.36341709,39.5301709 C4.35798995,39.5413869 4.35328643,39.550191 4.34882412,39.5603216 C4.34436181,39.5704523 4.3400201,39.5827538 4.33579899,39.5940905 C4.33157789,39.6054271 4.32747739,39.6155578 4.32373869,39.6265327 C4.32,39.6375075 4.31734673,39.6489648 4.31433166,39.6603015 C4.31131658,39.6716382 4.3079397,39.6833367 4.30540704,39.6949146 C4.30287437,39.7064925 4.30142714,39.7168643 4.29961809,39.7278392 C4.29780905,39.7388141 4.29527638,39.7530452 4.29382915,39.7657085 C4.29262312,39.7759598 4.2921407,39.7864523 4.29141709,39.7969447 C4.29045226,39.8105729 4.28948744,39.8240804 4.28936683,39.8377085 C4.28936683,39.841206 4.28936683,39.8445829 4.28936683,39.8480804 L4.28936683,44.8160804 C4.28936663,45.2154412 4.61290069,45.5392991 5.01226131,45.5396985 Z" id="Path" fill="#1AE5BE"></path>
                                    <path d="M45.3964221,39.9580704 C45.3964221,39.9551759 45.3964221,39.9521608 45.3964221,39.9492663 C45.3940028,39.9254602 45.3903801,39.9017917 45.3855678,39.8783518 C45.3843618,39.872201 45.3824322,39.8662915 45.3809849,39.8601407 C45.3771256,39.8432563 45.3731457,39.8263719 45.3679598,39.8097286 C45.3649447,39.7998392 45.3609648,39.7904322 45.3575879,39.7807839 C45.3531256,39.7687236 45.3490251,39.7555779 45.3437186,39.7431558 C45.3384121,39.7307337 45.3326231,39.7190352 45.3268342,39.7078191 C45.3222513,39.6982915 45.3181508,39.6885226 45.3130854,39.6791156 C45.3017487,39.6582915 45.2894472,39.638191 45.2761809,39.6188141 C45.2732864,39.6144724 45.2697889,39.6104925 45.2667739,39.6061508 C45.2559196,39.5908342 45.2448241,39.5757588 45.2328844,39.5612864 L45.2310754,39.558995 C45.2257688,39.552603 45.2197387,39.5469347 45.2143116,39.5409045 C45.2045427,39.5300503 45.1950151,39.519196 45.1846432,39.5090653 C45.1742714,39.4989347 45.1666734,39.4924221 45.1575075,39.4849447 C45.1483417,39.4774673 45.1411055,39.4698693 45.1324221,39.4627538 C45.1237387,39.4556382 45.1110754,39.446593 45.1002211,39.4386332 C45.0920201,39.4327236 45.0840603,39.4265729 45.0761005,39.4210251 C45.0651256,39.4137889 45.0537889,39.4071558 45.0424523,39.4006432 C45.033407,39.3952161 45.0243618,39.3897889 45.0149548,39.3847236 C45.0055477,39.3796583 44.9933668,39.3741106 44.9825126,39.3690452 C44.9716583,39.3639799 44.9612864,39.3590352 44.9503116,39.3545729 C44.9393367,39.3501106 44.9299296,39.3469749 44.9196784,39.3433568 C44.9076181,39.3391357 44.8955578,39.3346734 44.8834975,39.3312965 C44.8734874,39.3282814 44.8632362,39.3259899 44.8531055,39.3234573 C44.8404422,39.3203216 44.8278995,39.3170653 44.814995,39.3145327 C44.8020905,39.312 44.792201,39.3109146 44.7808643,39.3093467 C44.7695276,39.3077789 44.7574673,39.305608 44.7455276,39.3045226 C44.7304523,39.3030754 44.7152563,39.3027136 44.7001809,39.3022312 C44.6924623,39.3022312 44.6849849,39.3010251 44.6772663,39.3010251 L39.7084221,39.3010251 C39.3087789,39.3010251 38.984804,39.625 38.984804,40.0246432 C38.984804,40.4242865 39.3087789,40.7482613 39.7084221,40.7482613 L42.6873166,40.7482613 L35.6519397,46.6468342 C35.3455466,46.903605 35.3053197,47.3601395 35.5620905,47.6665327 C35.8188612,47.9729258 36.2753958,48.0131527 36.5817889,47.7563819 L43.9525628,41.5753568 L43.9525628,44.9919196 C43.9525628,45.3915628 44.2765377,45.7155377 44.6761809,45.7155377 C45.0758241,45.7155377 45.399799,45.3915628 45.399799,44.9919196 L45.399799,40.0210251 C45.3995578,40.0000402 45.3983518,39.9790553 45.3964221,39.9580704 Z" id="Path" fill="#1AE5BE"></path>
                                </g>
                            </g>
                        </g>
                    </g>
                </g>
            </g>
        </g>
    </g>
</svg>