<?xml version="1.0" encoding="UTF-8"?>
<svg width="83px" height="75px" viewBox="0 0 83 75" version="1.1" xmlns="http://www.w3.org/2000/svg" xmlns:xlink="http://www.w3.org/1999/xlink">
    <!-- Generator: Sketch 53.2 (72643) - https://sketchapp.com -->
    <title>one login</title>
    <desc>Created with Sketch.</desc>
    <g id="Login-&amp;-Registration" stroke="none" stroke-width="1" fill="none" fill-rule="evenodd">
        <g id="1(a)-Registration-Screen" transform="translate(-168.000000, -333.000000)">
            <g id="Group-10" transform="translate(120.000000, 84.000000)">
                <g id="Group-7" transform="translate(48.000000, 245.000000)">
                    <g id="Group-4" transform="translate(0.000000, 0.000000)">
                        <g id="Group-3-Copy" transform="translate(0.000000, 4.000000)">
                            <g id="one-login" transform="translate(0.000000, -0.000000)">
                                <path d="M54.8140128,8.60512392 L73.8561115,26.8045188 C84.7197178,37.1873587 85.1094561,54.4110064 74.7266162,65.2746127 C69.7583808,70.472897 62.9344523,73.4932092 55.7461081,73.6755008 L34.3492648,74.2181105 C15.8536719,74.6871464 0.479802691,60.0737346 0.0107667828,41.5781418 C-0.0657970267,38.5589848 0.266261702,35.5433394 0.99791694,32.613177 L3.26841472,23.5201959 C7.42014713,6.89317054 24.2646585,-3.22005258 40.8916838,0.931679826 C46.1200362,2.23718814 50.9182724,4.88178856 54.8140128,8.60512392 Z" id="Rectangle" fill-opacity="0.217111014" fill="#FFFFFF" opacity="0.477422805"></path>
                                <g id="in" transform="translate(15.000000, 21.000000)" fill-rule="nonzero">
                                    <path d="M32.1303497,0.0292321629 L19.0874793,0.0292321629 C16.9402423,0.0284729339 15.1995984,1.7694964 15.1999781,3.91673342 L15.1999781,7.30842645 C15.1999781,7.84523566 15.6354237,8.28030177 16.1718534,8.28030177 C16.7086626,8.28030177 17.1437287,7.84523566 17.1437287,7.30842645 L17.1437287,3.91673342 C17.1471454,2.84463346 18.0153794,1.9760199 19.0874793,1.97298279 L32.1303497,1.97298279 C33.2024496,1.9760199 34.0706836,2.84463346 34.0741003,3.91673342 L34.0741003,29.0492013 C34.0706836,30.1216809 33.2024496,30.9899148 32.1303497,30.9929519 L19.0874793,30.9929519 C18.0153794,30.9899148 17.1471454,30.1216809 17.1437287,29.0492013 L17.1437287,25.5895529 C17.1437287,25.0527437 16.7086626,24.6176776 16.1718534,24.6176776 C15.6354237,24.6176776 15.1999781,25.0527437 15.1999781,25.5895529 L15.1999781,29.0492013 C15.1995984,31.1964383 16.9402423,32.9374618 19.0874793,32.9367026 L32.1303497,32.9367026 C34.2775867,32.9374618 36.0182306,31.1964383 36.0178509,29.0492013 L36.0178509,3.91673342 C36.0148138,1.77101495 34.2760682,0.0318896587 32.1303497,0.0292321629 Z" id="Path" fill="#FFFFFF"></path>
                                    <path d="M19.2530018,23.1499941 C18.8745019,23.5284939 18.8745019,24.1419902 19.2530018,24.5204901 C19.6311221,24.8989899 20.2446184,24.8989899 20.6231182,24.5204901 L26.9110756,18.2325327 C26.9763734,18.1850779 27.0352174,18.1292709 27.0860891,18.0670103 C27.250093,17.8676998 27.327919,17.6106844 27.3024831,17.353669 C27.2770473,17.0966534 27.150248,16.8601385 26.9501783,16.6968938 L20.662221,9.4564227 C20.3057402,9.07033007 19.7078091,9.03730147 19.3110866,9.38125427 C18.9143641,9.72558658 18.8627332,10.3223789 19.1945374,10.7293517 L24.1803337,16.4732866 L0.971875313,16.4732866 C0.43506601,16.4732866 -2.84217094e-14,16.9083526 -2.84217094e-14,17.4451619 C-2.84217094e-14,17.9819712 0.43506601,18.4170372 0.971875313,18.4170372 L23.9760881,18.4170372 L19.2530018,23.1499941 Z" id="Path" fill="#1AE5BE"></path>
                                </g>
                            </g>
                        </g>
                    </g>
                </g>
            </g>
        </g>
    </g>
</svg>