<?xml version="1.0" encoding="UTF-8"?>
<svg width="17px" height="14px" viewBox="0 0 17 14" version="1.1" xmlns="http://www.w3.org/2000/svg" xmlns:xlink="http://www.w3.org/1999/xlink">
    <!-- Generator: Sketch 55.2 (78181) - https://sketchapp.com -->
    <title>noun_hide_1159224</title>
    <desc>Created with Sketch.</desc>
    <g id="new" stroke="none" stroke-width="1" fill="none" fill-rule="evenodd">
        <g id="0-sign-in" transform="translate(-1249.000000, -500.000000)" fill="#007AC8" fill-rule="nonzero">
            <g id="noun_hide_1159224" transform="translate(1249.000000, 500.000000)">
                <g id="Group">
                    <path d="M16.6075,7.035 C16.135,6.405 14.945,5.0575 13.1075,4.0425 L11.3925,5.7575 C11.655,6.23 11.795,6.79 11.795,7.3675 C11.795,9.24 10.29,10.745 8.4175,10.745 C7.84,10.745 7.28,10.605 6.8075,10.3425 L5.6525,11.4975 C6.4925,11.7425 7.4025,11.9 8.4175,11.9 C13.0025,11.9 15.8025,8.75 16.625,7.7 C16.7475,7.5075 16.7475,7.2275 16.6075,7.035 Z" id="Path"></path>
                    <path d="M8.4,9.8175 C9.7475,9.8175 10.85,8.715 10.85,7.3675 C10.85,7.0525 10.78,6.7375 10.675,6.4575 L7.49,9.6425 C7.77,9.7475 8.085,9.8175 8.4,9.8175 Z" id="Path"></path>
                    <path d="M14.8575,0.175 C14.63,-0.0525 14.2625,-0.0525 14.035,0.175 L11.025,3.185 C10.2375,2.9575 9.3625,2.8175 8.4175,2.8175 C3.8325,2.8175 1.0325,5.9675 0.21,7.0175 C0.0525,7.21 0.0525,7.49 0.21,7.6825 C0.6825,8.295 1.82,9.6075 3.5875,10.605 L1.225,12.9675 C0.9975,13.195 0.9975,13.5625 1.225,13.79 C1.3475,13.9125 1.4875,13.965 1.645,13.965 C1.8025,13.965 1.9425,13.9125 2.065,13.79 L14.875,0.98 C15.085,0.7875 15.085,0.4025 14.8575,0.175 Z M5.0225,7.3675 C5.0225,5.495 6.545,3.99 8.4,3.99 C8.925,3.99 9.4325,4.1125 9.8875,4.34 L9.17,5.0575 C8.925,4.9875 8.68,4.935 8.4,4.935 C7.0525,4.935 5.95,6.0375 5.95,7.385 C5.95,7.6475 6.0025,7.91 6.0725,8.155 L5.355,8.8725 C5.145,8.4 5.0225,7.8925 5.0225,7.3675 Z" id="Shape"></path>
                </g>
            </g>
        </g>
    </g>
</svg>