<svg id="Capa_1" enable-background="new 0 0 512 512" height="512" viewBox="0 0 512 512" width="512" xmlns="http://www.w3.org/2000/svg"><path d="m459.406 132.928-128.533-128.533c-2.813-2.815-6.629-4.395-10.607-4.395h-216.899c-30.42 0-55.168 24.748-55.168 55.168v401.666c0 30.418 24.748 55.166 55.168 55.166h305.266c30.42 0 55.168-24.748 55.168-55.166v-313.301c0-3.978-1.581-7.793-4.395-10.605z" fill="#e7f0ef"/><path d="m459.406 132.928-128.533-128.533c-2.812-2.815-6.629-4.395-10.607-4.395h-64.266v512h152.633c30.418 0 55.166-24.748 55.166-55.166v-313.301c0-3.978-1.58-7.793-4.393-10.605z" fill="#c5e1e6"/><path d="m256 192.801c-70.285 0-127.467 57.182-127.467 127.467s57.182 127.466 127.467 127.466 127.467-57.182 127.467-127.467-57.182-127.466-127.467-127.466z" fill="#ff5b5b"/><path d="m256 192.801v254.934c70.285 0 127.467-57.182 127.467-127.467s-57.182-127.467-127.467-127.467z" fill="#ff0059"/><path d="m277.212 320.268 23.476-23.477c5.858-5.857 5.858-15.355 0-21.213-5.857-5.857-15.354-5.857-21.213 0l-23.476 23.477-23.476-23.477c-5.858-5.857-15.355-5.857-21.214 0-5.857 5.857-5.857 15.355.001 21.213l23.476 23.477-23.476 23.475c-5.858 5.857-5.858 15.355-.001 21.213 2.93 2.93 6.768 4.395 10.606 4.395s7.679-1.465 10.607-4.395l23.476-23.475 23.476 23.475c2.93 2.93 6.768 4.395 10.607 4.395 3.838 0 7.678-1.465 10.605-4.395 5.858-5.857 5.858-15.355 0-21.213z" fill="#e7f0ef"/><path d="m459.406 132.928-128.533-128.533c-4.29-4.291-10.742-5.574-16.348-3.252-5.605 2.322-9.26 7.791-9.26 13.857v88.367c0 30.42 24.748 55.166 55.166 55.166h88.367c6.067 0 11.537-3.654 13.859-9.26 2.322-5.605 1.038-12.056-3.251-16.345z" fill="#8db9c4"/><path d="m277.212 320.268 23.476-23.477c5.858-5.857 5.858-15.355 0-21.213-5.857-5.857-15.354-5.857-21.213 0l-23.475 23.477v42.426l23.475 23.475c2.93 2.93 6.768 4.395 10.607 4.395 3.838 0 7.678-1.465 10.605-4.395 5.858-5.857 5.858-15.355 0-21.213z" fill="#c5e1e6"/></svg>