<?xml version="1.0" encoding="UTF-8"?>
<svg width="83px" height="75px" viewBox="0 0 83 75" version="1.1" xmlns="http://www.w3.org/2000/svg" xmlns:xlink="http://www.w3.org/1999/xlink">
    <!-- Generator: Sketch 53.2 (72643) - https://sketchapp.com -->
    <title>tracking</title>
    <desc>Created with Sketch.</desc>
    <g id="Login-&amp;-Registration" stroke="none" stroke-width="1" fill="none" fill-rule="evenodd">
        <g id="1(a)-Registration-Screen" transform="translate(-168.000000, -179.000000)">
            <g id="Group-10" transform="translate(120.000000, 84.000000)">
                <g id="Group-8" transform="translate(48.000000, 93.000000)">
                    <g id="tracking" transform="translate(0.000000, 2.000000)">
                        <path d="M54.8140128,8.60512392 L73.8561115,26.8045188 C84.7197178,37.1873587 85.1094561,54.4110064 74.7266162,65.2746127 C69.7583808,70.472897 62.9344523,73.4932092 55.7461081,73.6755008 L34.3492648,74.2181105 C15.8536719,74.6871464 0.479802691,60.0737346 0.0107667828,41.5781418 C-0.0657970267,38.5589848 0.266261702,35.5433394 0.99791694,32.613177 L3.26841472,23.5201959 C7.42014713,6.89317054 24.2646585,-3.22005258 40.8916838,0.931679826 C46.1200362,2.23718814 50.9182724,4.88178856 54.8140128,8.60512392 Z" id="Rectangle" fill-opacity="0.217111014" fill="#FFFFFF" opacity="0.477422805"></path>
                        <g id="Group-2" transform="translate(20.014042, 17.474366)" fill-rule="nonzero">
                            <g id="report">
                                <path d="M26.8794103,35.7758317 C26.8847026,31.8920111 29.7731855,28.6160535 33.6260081,28.124244 C30.6581401,27.7428175 27.7375252,29.1123992 26.1324345,31.6376008 C24.5273438,34.1628024 24.5273438,37.3884828 26.1324345,39.9140625 C27.7375252,42.4392641 30.6581401,43.8084677 33.6260081,43.4270414 C29.7731855,42.9356099 26.8847026,39.6596522 26.8794103,35.7758317 L26.8794103,35.7758317 Z" id="Path" fill-opacity="0.173732517" fill="#85E9D3"></path>
                                <g id="Group" fill="#FFFFFF">
                                    <path d="M32.7289567,0 C30.9167086,0.00226814516 29.4480847,1.47089216 29.4458166,3.2831401 C29.4458166,3.35912303 29.4495968,3.43434977 29.4545111,3.50882052 L25.374118,7.24899194 C24.3027974,6.05103329 22.5215474,5.80493952 21.1655746,6.66759077 C19.8099798,7.53061994 19.2784779,9.24836187 19.9097782,10.7260585 L15.9768145,14.0432207 C15.4230091,13.0739667 14.4144405,12.452873 13.3000252,12.3946573 C12.1852318,12.3368196 11.1176915,12.8494204 10.4663559,13.7559224 L6.49105345,10.9880293 C6.94921877,9.34816026 6.08051913,7.63004032 4.48865923,7.02671371 C2.89642142,6.4233871 1.10723284,7.13445058 0.363659226,8.66582661 C-0.380292387,10.1972026 0.167464742,12.0430947 1.62626013,12.9212449 C3.08467742,13.7990172 4.97253019,13.4191028 5.97769655,12.0453629 L9.95980345,14.8177924 C9.6108871,16.1038306 10.0735887,17.4734123 11.1316785,18.2838962 C12.1893901,19.0947581 13.6319304,19.1854839 14.7830141,18.5141129 C15.9340978,17.8423639 16.5653982,16.5419607 16.3805444,15.2222782 L20.5554435,11.7009828 C21.6343246,12.8358115 23.3649194,13.0497732 24.688004,12.2116935 C26.0107107,11.3739919 26.5569556,9.71824597 25.9925655,8.25756048 L29.8015373,4.76650703 C30.5318801,6.20753526 32.2019909,6.90309977 33.7394153,6.40599794 C35.2768397,5.90889619 36.2237903,4.36693548 35.9720263,2.77129539 C35.7202621,1.17527719 34.344632,-0.000378024194 32.7289567,0 L32.7289567,0 Z M3.328503,12.2302167 C2.156628,12.2302167 1.20665323,11.2802419 1.20665323,10.1083669 C1.20665323,8.93649194 2.156628,7.98651716 3.328503,7.98651716 C4.500378,7.98651716 5.45035277,8.93649194 5.45035277,10.1083669 C5.44921877,11.2798639 4.5,12.2287046 3.328503,12.2302167 Z M13.1287802,17.7954889 C11.9569053,17.7954889 11.0069304,16.8455141 11.0069304,15.6736392 C11.0069304,14.5013861 11.9569053,13.5514113 13.1287802,13.5514113 C14.3006553,13.5514113 15.2506301,14.5013861 15.2506301,15.6736392 C15.249118,16.8447581 14.2998992,17.7939768 13.1287802,17.7954889 Z M22.9290575,11.5588457 C21.7571825,11.5588457 20.8072076,10.608871 20.8072076,9.43699597 C20.8072076,8.26512097 21.7571825,7.31514619 22.9290575,7.31514619 C24.1009325,7.31514619 25.0509073,8.26512097 25.0509073,9.43699597 C25.0493952,10.608493 24.1001764,11.5577117 22.9290575,11.5588457 L22.9290575,11.5588457 Z M32.7289567,5.40498987 C31.5570817,5.40536797 30.6071069,4.4550151 30.6071069,3.2831401 C30.6071069,2.1112651 31.5570817,1.16129032 32.7289567,1.16129032 C33.9008317,1.16129032 34.8508065,2.1112651 34.8508065,3.2831401 C34.8496724,4.4546371 33.9004537,5.40385587 32.7289567,5.40498987 L32.7289567,5.40498987 Z" id="Shape"></path>
                                    <path d="M35.702873,24.4075101 L35.702873,10.531376 C35.702873,10.2108115 35.4427924,9.95073087 35.1222279,9.95073087 L30.3356855,9.95073087 C30.015121,9.95073087 29.7550403,10.2108115 29.7550403,10.531376 L29.7550403,24.3523185 L30.9163306,24.3523185 L30.9163306,11.1120212 L34.5415827,11.1120212 L34.5415827,24.4075101 L35.702873,24.4075101 Z" id="Path"></path>
                                    <path d="M25.9025957,26.9119204 L25.9025957,16.6606603 C25.9025957,16.3400957 25.6428931,16.0800151 25.3219506,16.0800151 L20.5357863,16.0800151 C20.2152218,16.0800151 19.9551411,16.3400957 19.9551411,16.6606603 L19.9551411,30.7896925 C19.9551411,31.110635 20.2152218,31.3703377 20.5357863,31.3703377 L22.4633317,31.3703377 L22.4633317,30.2090474 L21.1164315,30.2090474 L21.1164315,17.2413054 L24.7413054,17.2413054 L24.7413054,26.9119204 L25.9025957,26.9119204 Z" id="Path"></path>
                                    <path d="M15.5220514,22.3737399 L10.7355091,22.3737399 C10.4149446,22.3737399 10.1548639,22.6338205 10.1548639,22.954385 L10.1548639,30.7893145 C10.1548639,31.110257 10.4149446,31.3699597 10.7355091,31.3699597 L15.5220514,31.3699597 C15.8426159,31.3699597 16.1026965,31.110257 16.1026965,30.7893145 L16.1026965,22.954385 C16.1026965,22.6338205 15.8426159,22.3737399 15.5220514,22.3737399 Z M14.9414062,30.2086694 L11.3161543,30.2086694 L11.3161543,23.5350302 L14.9414062,23.5350302 L14.9414062,30.2086694 Z" id="Shape"></path>
                                    <path d="M5.72177419,16.8345514 L0.935609903,16.8345514 C0.615045387,16.8345514 0.354964742,17.094632 0.354964742,17.4151965 L0.354964742,30.7893145 C0.354964742,31.110257 0.615045387,31.3699597 0.935609903,31.3699597 L5.72177419,31.3699597 C6.04233871,31.3699597 6.30241935,31.110257 6.30241935,30.7893145 L6.30241935,17.4151965 C6.30241935,17.094632 6.04233871,16.8345514 5.72177419,16.8345514 Z M5.14112903,30.2086694 L1.51625506,30.2086694 L1.51625506,17.9958417 L5.14112903,17.9958417 L5.14112903,30.2086694 Z" id="Shape"></path>
                                </g>
                                <path d="M32.6582661,44.6514617 C37.5601059,44.6514617 41.5338962,40.6776714 41.5338962,35.7758317 C41.5338962,30.8739919 37.5601059,26.9002016 32.6582661,26.9002016 C27.7564264,26.9002016 23.7826361,30.8739919 23.7826361,35.7758317 C23.7883065,40.6754032 27.7586946,44.6457914 32.6582661,44.6514617 L32.6582661,44.6514617 Z M32.6582661,28.0614919 C36.9189768,28.0614919 40.3726059,31.515121 40.3726059,35.7758317 C40.3729839,40.0361643 36.9189768,43.4901714 32.6582661,43.4901714 C28.3979334,43.4901714 24.9439264,40.0365424 24.9439264,35.7758317 C24.9484627,31.5173892 28.3998236,28.0660282 32.6582661,28.0614919 Z" id="Shape" fill="#1AE5BE"></path>
                                <path d="M24.0858115,44.4386341 C28.8311492,49.1465474 36.4853831,49.1465474 41.2307207,44.4386341 C41.2481099,44.4261592 41.264743,44.4125505 41.2806199,44.3978075 C41.2949849,44.3823085 41.3085938,44.3652974 41.3210685,44.3482863 C46.0286038,39.6029486 46.0286038,31.9494707 41.3210685,27.2041331 C41.3082157,27.1863659 41.2946069,27.1697328 41.2798639,27.1538559 C41.2639869,27.1391129 41.2473538,27.125126 41.2295866,27.1126512 C36.484249,22.405494 28.8311492,22.405494 24.0861895,27.1126512 C24.0684224,27.125126 24.0517893,27.1391129 24.0355343,27.1538559 C24.0211694,27.1697328 24.0071825,27.1863659 23.9943296,27.2041331 C19.2871724,31.9494707 19.2871724,39.6029486 23.9943296,44.3482863 C24.0071825,44.3652974 24.0207914,44.3823085 24.0351562,44.3978075 C24.0514113,44.4125505 24.0684224,44.4261592 24.0858115,44.4386341 L24.0858115,44.4386341 Z M21.641507,36.3564768 L22.2520161,36.3564768 C22.5725806,36.3564768 22.8326613,36.0963962 22.8326613,35.7758317 C22.8326613,35.4552672 22.5725806,35.1951865 22.2520161,35.1951865 L21.641507,35.1951865 C21.7726815,32.6733871 22.7687752,30.2736895 24.4615675,28.4002016 L24.8894909,28.828125 C25.1166834,29.0515373 25.4818548,29.0500252 25.7071573,28.8247228 C25.9324597,28.5990424 25.9339718,28.234249 25.7105595,28.0066785 L25.2826361,27.5791331 C27.1565021,25.8859627 29.5558215,24.890247 32.077621,24.7590726 L32.077621,25.3695817 C32.077621,25.6901462 32.3377016,25.9502268 32.6582661,25.9502268 C32.9788306,25.9502268 33.2389113,25.6901462 33.2389113,25.3695817 L33.2389113,24.7590726 C35.7607107,24.890247 38.1604083,25.8859627 40.0338962,27.5791331 L39.6059728,28.0066785 C39.4574092,28.1529737 39.3988155,28.3680696 39.4521169,28.5695565 C39.5054183,28.7710433 39.6630544,28.9286795 39.8645414,28.9819809 C40.0660282,29.0352823 40.281124,28.9766885 40.4274194,28.828125 L40.8549647,28.4002016 C42.548135,30.2736895 43.5438508,32.6733871 43.6754032,35.1951865 L43.0645161,35.1951865 C42.7439516,35.1951865 42.483871,35.4552672 42.483871,35.7758317 C42.483871,36.0963962 42.7439516,36.3564768 43.0645161,36.3564768 L43.6754032,36.3564768 C43.5438508,38.8782763 42.548135,41.2779737 40.8549647,43.1514617 L40.4270414,42.7235383 C40.1994707,42.5020161 39.8361895,42.5046623 39.6116431,42.7292086 C39.3870968,42.9537551 39.3844506,43.3170363 39.6059728,43.5446069 L40.0338962,43.9725302 C38.1604083,45.6657006 35.7607107,46.6614164 33.2389113,46.7929688 L33.2389113,46.1820817 C33.2389113,45.8615172 32.9788306,45.6014365 32.6582661,45.6014365 C32.3377016,45.6014365 32.077621,45.8615172 32.077621,46.1820817 L32.077621,46.7929688 C29.5558215,46.6614164 27.156124,45.6657006 25.2826361,43.9725302 L25.7105595,43.5446069 C25.9320817,43.3170363 25.9294355,42.9537551 25.7048892,42.7292086 C25.4803427,42.5046623 25.1170615,42.5020161 24.8894909,42.7235383 L24.4615675,43.1514617 C22.7687752,41.2779737 21.7726815,38.8782763 21.641507,36.3564768 L21.641507,36.3564768 Z" id="Shape" fill="#1AE5BE"></path>
                            </g>
                            <path d="M30.3729677,33.7782581 L33.5111613,33.7782581 C33.4463226,33.2984516 33.2647742,32.9223871 32.9535484,32.6370968 C32.5645161,32.2999355 32.0328387,32.1313548 31.3585161,32.1313548 L30.1654839,32.1313548 L30.3859355,31.4829677 L36.2862581,31.4829677 L36.0658065,32.1313548 L33.7316129,32.1313548 C34.2243871,32.5463226 34.5096774,33.0909677 34.5745161,33.7782581 L36.2603226,33.7782581 L36.039871,34.4266452 L34.5615484,34.4266452 C34.4967097,34.9453548 34.2762581,35.3732903 33.9131613,35.7104516 C33.4722581,36.1124516 32.9146452,36.3718065 32.2143871,36.4885161 C32.37,36.5922581 32.5904516,36.8386452 32.9016774,37.2536129 L35.5989677,40.7419355 L34.1595484,40.7419355 L31.8253548,37.6037419 C31.5789677,37.2665806 31.3455484,37.0331613 31.1380645,36.8905161 C30.8787097,36.7219355 30.5804516,36.6311613 30.2432903,36.6311613 L30.2432903,35.892 L30.9435484,35.892 C31.7994194,35.892 32.4478065,35.7234194 32.8887097,35.3992258 C33.225871,35.1528387 33.4203871,34.8286452 33.4981935,34.4266452 L30.1525161,34.4266452 L30.3729677,33.7782581 Z" id="₹" fill="#1AE5BE"></path>
                        </g>
                    </g>
                </g>
            </g>
        </g>
    </g>
</svg>