<?xml version="1.0" encoding="UTF-8"?>
<svg width="36px" height="36px" viewBox="0 0 36 36" version="1.1" xmlns="http://www.w3.org/2000/svg" xmlns:xlink="http://www.w3.org/1999/xlink">
    <!-- Generator: Sketch 53.2 (72643) - https://sketchapp.com -->
    <title>user_profile_icon</title>
    <desc>Created with Sketch.</desc>
    <g id="Initiator" stroke="none" stroke-width="1" fill="none" fill-rule="evenodd">
        <g id="2.1-Dashboard---myworkplace" transform="translate(-1224.000000, -10.000000)" fill-rule="nonzero">
            <g id="Group-9" transform="translate(38.000000, 9.000000)">
                <g id="user_profile_icon" transform="translate(1186.000000, 1.000000)">
                    <path d="M18.103252,6.03654545 L17.8090702,6.03654545 C14.5528299,6.04025273 11.9140502,8.67903245 11.9103429,11.9352727 L11.9103429,14.7067273 C11.9140502,17.9629675 14.5528299,20.6017473 17.8090702,20.6054545 L18.103252,20.6054545 C21.3592497,20.6014466 23.9976455,17.9627255 24.001252,14.7067273 L24.001252,11.9352727 C23.9976455,8.67927452 21.3592497,6.04055343 18.103252,6.03654545 L18.103252,6.03654545 Z M21.8194338,14.7067273 C21.8171294,16.7584932 20.1544724,18.4212316 18.1027066,18.4236364 L17.8085247,18.4236364 C15.7569424,18.4209313 14.094565,16.75831 14.0921611,14.7067273 L14.0921611,11.9352727 C14.0944657,9.88343587 15.7572333,8.22066823 17.8090702,8.21836364 L18.103252,8.21836364 C20.1548463,8.22096893 21.81723,9.88367794 21.8194338,11.9352727 L21.8194338,14.7067273 Z" id="Shape" fill="#206ECB"></path>
                    <path d="M17.9561611,1.61486985e-13 C10.6940121,-0.00029415704 4.1467775,4.37409249 1.36746956,11.0833589 C-1.41183838,17.7926253 0.124127914,25.5154711 5.25913873,30.6506899 C10.3941495,35.7859087 18.1169331,37.3221878 24.8263121,34.5431517 C31.5356911,31.7641155 35.9103429,25.2170581 35.9103429,17.9549091 C35.8991215,8.04362227 27.8674475,0.0116228556 17.9561611,1.61486985e-13 Z M9.84852474,31.4798182 L9.84852474,26.9467273 C9.8626439,24.7150528 11.5044169,22.8281687 13.7127066,22.5056364 C14.8245287,23.7147753 16.3905791,24.4049692 18.0331815,24.4097672 C19.6757838,24.4145653 21.2458396,23.7335322 22.3647066,22.5309091 C24.5036954,22.9140477 26.0615062,24.7736964 26.0637975,26.9467273 L26.0637975,31.4796364 C21.074339,34.477323 14.8379832,34.477323 9.84852474,31.4796364 L9.84852474,31.4798182 Z M28.2456157,29.9003636 L28.2456157,26.9467273 C28.2434344,23.4288749 25.5098039,20.5173308 21.9990702,20.2936364 C21.4247066,20.2552727 21.1223429,20.6230909 20.9217975,20.8676364 C20.1972521,21.7532362 19.1045202,22.254855 17.9606343,22.2269588 C16.8167484,22.1990626 15.7497672,21.6447745 15.069252,20.7249091 C14.858006,20.4387166 14.5204941,20.2734891 14.1648884,20.2821818 C10.5590256,20.3946765 7.68803093,23.3391732 7.66670656,26.9467273 L7.66670656,29.9003636 C2.66837691,25.598323 0.874068791,18.6408016 3.1684174,12.4580177 C5.462766,6.27523369 11.3614016,2.17246106 17.9561611,2.17246106 C24.5509206,2.17246106 30.4495562,6.27523369 32.7439048,12.4580177 C35.0382534,18.6408016 33.2439453,25.598323 28.2456157,29.9003636 Z" id="Shape" fill="#206ECB"></path>
                    <path d="M5.81943383,19.7730909 C5.81948172,14.6713542 8.28705464,9.88468614 12.4426558,6.92517669 C16.5982571,3.96566723 21.9286482,3.19883119 26.7499793,4.86690909 C19.825485,0.206077393 10.4682328,1.74988362 5.40790075,8.38803187 C0.34756866,15.0261801 1.33792279,24.4580784 7.66670656,29.9003636 L7.66670656,27.1741818 C6.45087775,24.8969124 5.81633003,22.3545994 5.81943383,19.7730909 L5.81943383,19.7730909 Z" id="Path" fill="#D4E1F4"></path>
                </g>
            </g>
        </g>
    </g>
</svg>